<svg width="120" height="120" viewBox="0 0 120 120" fill="none" xmlns="http://www.w3.org/2000/svg">
<path d="M60 58.125C56.6624 58.125 53.3998 59.1147 50.6248 60.9689C47.8497 62.8232 45.6868 65.4587 44.4095 68.5422C43.1323 71.6257 42.7981 75.0187 43.4493 78.2922C44.1004 81.5656 45.7076 84.5724 48.0676 86.9324C50.4276 89.2924 53.4344 90.8996 56.7079 91.5508C59.9813 92.2019 63.3743 91.8677 66.4578 90.5905C69.5413 89.3132 72.1768 87.1503 74.0311 84.3752C75.8853 81.6002 76.875 78.3376 76.875 75C76.87 70.526 75.0905 66.2367 71.9269 63.0731C68.7633 59.9095 64.474 58.13 60 58.125ZM60 88.125C57.4041 88.125 54.8665 87.3552 52.7081 85.913C50.5498 84.4708 48.8675 82.421 47.8741 80.0227C46.8807 77.6244 46.6208 74.9854 47.1272 72.4394C47.6336 69.8934 48.8837 67.5548 50.7192 65.7192C52.5548 63.8837 54.8934 62.6336 57.4394 62.1272C59.9854 61.6208 62.6244 61.8807 65.0227 62.8741C67.421 63.8675 69.4709 65.5497 70.913 67.7081C72.3552 69.8665 73.125 72.4041 73.125 75C73.1211 78.4798 71.737 81.8159 69.2765 84.2765C66.8159 86.737 63.4798 88.1211 60 88.125Z" fill="black"/>
<path d="M65.625 73.125H61.875V65.625C61.875 65.1277 61.6775 64.6508 61.3258 64.2992C60.9742 63.9475 60.4973 63.75 60 63.75C59.5027 63.75 59.0258 63.9475 58.6742 64.2992C58.3225 64.6508 58.125 65.1277 58.125 65.625V75C58.125 75.4973 58.3225 75.9742 58.6742 76.3258C59.0258 76.6775 59.5027 76.875 60 76.875H65.625C66.1223 76.875 66.5992 76.6775 66.9508 76.3258C67.3025 75.9742 67.5 75.4973 67.5 75C67.5 74.5027 67.3025 74.0258 66.9508 73.6742C66.5992 73.3225 66.1223 73.125 65.625 73.125Z" fill="black"/>
<path d="M60 106.875C59.5027 106.875 59.0258 107.073 58.6742 107.424C58.3225 107.776 58.125 108.253 58.125 108.75V116.25C58.125 116.747 58.3225 117.224 58.6742 117.576C59.0258 117.927 59.5027 118.125 60 118.125C60.4973 118.125 60.9742 117.927 61.3258 117.576C61.6775 117.224 61.875 116.747 61.875 116.25V108.75C61.875 108.253 61.6775 107.776 61.3258 107.424C60.9742 107.073 60.4973 106.875 60 106.875Z" fill="black"/>
<path d="M52.5 106.875C52.0027 106.875 51.5258 107.073 51.1742 107.424C50.8225 107.776 50.625 108.253 50.625 108.75V116.25C50.625 116.747 50.8225 117.224 51.1742 117.576C51.5258 117.927 52.0027 118.125 52.5 118.125C52.9973 118.125 53.4742 117.927 53.8258 117.576C54.1775 117.224 54.375 116.747 54.375 116.25V108.75C54.375 108.253 54.1775 107.776 53.8258 107.424C53.4742 107.073 52.9973 106.875 52.5 106.875Z" fill="black"/>
<path d="M67.5 106.875C67.0027 106.875 66.5258 107.073 66.1742 107.424C65.8225 107.776 65.625 108.253 65.625 108.75V116.25C65.625 116.747 65.8225 117.224 66.1742 117.576C66.5258 117.927 67.0027 118.125 67.5 118.125C67.9973 118.125 68.4742 117.927 68.8258 117.576C69.1775 117.224 69.375 116.747 69.375 116.25V108.75C69.375 108.253 69.1775 107.776 68.8258 107.424C68.4742 107.073 67.9973 106.875 67.5 106.875Z" fill="black"/>
<path d="M114.08 23.6743C113.608 21.8426 112.593 20.1966 111.168 18.9525C109.743 17.7085 107.975 16.9246 106.097 16.7039C105.256 14.2916 103.775 12.1536 101.811 10.5196C99.8477 8.8855 97.4761 7.81707 94.9512 7.42893C92.4263 7.0408 89.8433 7.34762 87.4796 8.31646C85.1158 9.2853 83.0606 10.8796 81.5344 12.9282C81.2297 12.9024 80.9273 12.8907 80.625 12.8907C77.6413 12.8907 74.7798 14.0759 72.67 16.1857C70.5603 18.2955 69.375 21.157 69.375 24.1407C69.375 27.1243 70.5603 29.9858 72.67 32.0956C74.7798 34.2054 77.6413 35.3907 80.625 35.3907H105C106.43 35.3897 107.842 35.0618 109.126 34.4318C110.41 33.8018 111.533 32.8865 112.409 31.756C113.285 30.6254 113.891 29.3094 114.181 27.9087C114.47 26.508 114.436 25.0596 114.08 23.6743ZM105 31.6407H80.625C79.5789 31.6406 78.5443 31.4217 77.5879 30.998C76.6314 30.5742 75.7741 29.9551 75.0712 29.1804C74.3682 28.4056 73.8351 27.4924 73.5061 26.4994C73.1771 25.5063 73.0595 24.4554 73.1608 23.4142C73.2621 22.373 73.5802 21.3645 74.0945 20.4535C74.6088 19.5425 75.3079 18.7492 76.1471 18.1246C76.9862 17.4999 77.9468 17.0577 78.967 16.8263C79.9872 16.595 81.0446 16.5797 82.0711 16.7813C82.4456 16.8548 82.8336 16.8123 83.1833 16.6594C83.533 16.5066 83.8277 16.2506 84.0281 15.9258C85.0971 14.187 86.6581 12.8045 88.5134 11.9534C90.3687 11.1024 92.4348 10.821 94.4501 11.145C96.4654 11.469 98.3392 12.3838 99.8343 13.7735C101.329 15.1632 102.378 16.9653 102.848 18.9516C102.95 19.3762 103.197 19.7522 103.545 20.0155C103.893 20.2788 104.322 20.413 104.759 20.3954C104.838 20.393 104.92 20.3907 105 20.3907C106.247 20.3894 107.46 20.8033 108.446 21.5671C109.432 22.331 110.136 23.4013 110.447 24.6094C110.566 25.0686 110.626 25.5412 110.625 26.0157C110.623 27.5069 110.03 28.9365 108.975 29.9909C107.921 31.0454 106.491 31.6387 105 31.6407Z" fill="black"/>
<path d="M99.6937 77.85C99.2877 76.2737 98.4228 74.8535 97.2085 73.7694C95.9943 72.6854 94.4855 71.9863 92.8734 71.7609C92.0866 69.5809 90.6912 67.6722 88.8526 66.2611C87.014 64.8499 84.8094 63.9956 82.5 63.7992V54.375C82.5 53.8777 82.3025 53.4008 81.9508 53.0492C81.5992 52.6975 81.1223 52.5 80.625 52.5V43.125C80.625 42.6277 80.4275 42.1508 80.0758 41.7992C79.7242 41.4475 79.2473 41.25 78.75 41.25C78.2527 41.25 77.7758 41.4475 77.4242 41.7992C77.0725 42.1508 76.875 42.6277 76.875 43.125V45H75.6445L67.5 35.2266V28.125C67.5 27.6277 67.3025 27.1508 66.9508 26.7992C66.5992 26.4475 66.1223 26.25 65.625 26.25H65.4469L63.7406 9.1875C63.6941 8.72501 63.4775 8.29627 63.1328 7.98446C62.7881 7.67264 62.3398 7.49999 61.875 7.5V3.75C61.875 3.25272 61.6775 2.77581 61.3258 2.42417C60.9742 2.07254 60.4973 1.875 60 1.875C59.5027 1.875 59.0258 2.07254 58.6742 2.42417C58.3225 2.77581 58.125 3.25272 58.125 3.75V7.5C57.6602 7.49999 57.2119 7.67264 56.8672 7.98446C56.5225 8.29627 56.3059 8.72501 56.2594 9.1875L54.5531 26.25H54.375C53.8777 26.25 53.4008 26.4475 53.0492 26.7992C52.6975 27.1508 52.5 27.6277 52.5 28.125V35.2266L44.3555 45H43.125V43.125C43.125 42.6277 42.9275 42.1508 42.5758 41.7992C42.2242 41.4475 41.7473 41.25 41.25 41.25C40.7527 41.25 40.2758 41.4475 39.9242 41.7992C39.5725 42.1508 39.375 42.6277 39.375 43.125V52.5C38.8777 52.5 38.4008 52.6975 38.0492 53.0492C37.6975 53.4008 37.5 53.8777 37.5 54.375V83.3039C34.6687 82.3032 31.5915 82.235 28.7187 83.1092C25.8458 83.9835 23.3283 85.7543 21.5344 88.1625C21.2297 88.1367 20.9273 88.125 20.625 88.125C17.6413 88.125 14.7798 89.3103 12.67 91.42C10.5603 93.5298 9.375 96.3913 9.375 99.375C9.375 102.359 10.5603 105.22 12.67 107.33C14.7798 109.44 17.6413 110.625 20.625 110.625H41.25V116.25C41.25 116.747 41.4475 117.224 41.7992 117.576C42.1508 117.927 42.6277 118.125 43.125 118.125C43.6223 118.125 44.0992 117.927 44.4508 117.576C44.8025 117.224 45 116.747 45 116.25V103.125H75V116.25C75 116.747 75.1975 117.224 75.5492 117.576C75.9008 117.927 76.3777 118.125 76.875 118.125C77.3723 118.125 77.8492 117.927 78.2008 117.576C78.5525 117.224 78.75 116.747 78.75 116.25V97.5H80.625C81.1223 97.5 81.5992 97.3025 81.9508 96.9508C82.3025 96.5992 82.5 96.1223 82.5 95.625V88.125H91.7297C92.9839 88.1236 94.2212 87.8356 95.3472 87.283C96.4731 86.7304 97.4578 85.9278 98.2262 84.9364C98.9946 83.9451 99.5262 82.7913 99.7806 81.5632C100.035 80.335 100.005 79.0649 99.6937 77.85ZM59.8219 11.25H60.1781L61.6781 26.25H58.3219L59.8219 11.25ZM56.25 30H63.75V33.75H56.25V30ZM55.4883 37.5H64.5117L70.7625 45H49.2375L55.4883 37.5ZM43.125 48.75H76.875V52.5H43.125V48.75ZM41.25 106.875H20.625C19.5789 106.875 18.5443 106.656 17.5879 106.232C16.6314 105.809 15.7741 105.189 15.0712 104.415C14.3682 103.64 13.8351 102.727 13.5061 101.734C13.1771 100.741 13.0595 99.6898 13.1608 98.6485C13.2621 97.6073 13.5802 96.5988 14.0945 95.6879C14.6088 94.7769 15.3079 93.9836 16.1471 93.3589C16.9862 92.7342 17.9468 92.292 18.967 92.0607C19.9872 91.8293 21.0446 91.814 22.0711 92.0156C22.4456 92.0892 22.8336 92.0466 23.1833 91.8938C23.533 91.7409 23.8278 91.485 24.0281 91.1602C25.386 88.9505 27.5271 87.334 30.0242 86.6333C32.5213 85.9326 35.1907 86.1991 37.5 87.3797V95.625C37.5 96.1223 37.6975 96.5992 38.0492 96.9508C38.4008 97.3025 38.8777 97.5 39.375 97.5H41.25V106.875ZM75 99.375H45V97.5H75V99.375ZM78.75 93.75H41.25V56.25H78.75V93.75ZM91.7297 84.375H82.5V67.568C84.2027 67.7814 85.799 68.5116 87.0738 69.6603C88.3486 70.809 89.2407 72.3209 89.6297 73.9922C89.7294 74.4171 89.9743 74.7939 90.3222 75.0575C90.6701 75.3211 91.0991 75.4549 91.5352 75.4359C91.6008 75.4336 91.6664 75.4336 91.7297 75.4336C92.9154 75.4336 94.0525 75.9046 94.891 76.743C95.7294 77.5815 96.2004 78.7186 96.2004 79.9043C96.2004 81.09 95.7294 82.2271 94.891 83.0656C94.0525 83.904 92.9154 84.375 91.7297 84.375Z" fill="black"/>
</svg>
