<svg width="120" height="120" viewBox="0 0 120 120" fill="none" xmlns="http://www.w3.org/2000/svg">
<g clip-path="url(#clip0_1185_20955)">
<path d="M100.449 117.343L94.1548 105.384L97.2456 102.562C97.9159 101.95 98.019 100.932 97.4851 100.198L86.0797 84.5152C85.7443 84.054 85.2085 83.7812 84.6385 83.7812H83.9255L83.9257 62.0988C83.9257 61.3162 83.8596 60.5493 83.7378 59.8007L89.1542 58.1964C90.0235 57.9391 90.613 57.085 90.4665 56.1904C90.2893 55.1088 89.2156 54.4605 88.1998 54.7619L82.726 56.3833C82.5807 56.0524 82.4239 55.7275 82.2544 55.4102L89.6316 50.2047C90.4358 49.6373 90.6277 48.5252 90.0603 47.721C89.4929 46.9169 88.3815 46.7247 87.5766 47.2923L80.1987 52.4983C79.6735 51.9227 79.0997 51.393 78.4875 50.9092L84.286 41.2717C84.7934 40.4284 84.5211 39.3332 83.6775 38.8257C82.834 38.3183 81.739 38.5904 81.2316 39.434L75.4366 49.0654C74.1909 48.512 72.8524 48.133 71.4511 47.9573V34.3728C71.4511 33.3969 70.699 32.5459 69.7235 32.5168C68.7143 32.4866 67.8867 33.2956 67.8867 34.2983V47.9575C66.4849 48.133 65.1464 48.5123 63.9009 49.0659L58.106 39.4342C57.5981 38.5909 56.5033 38.3186 55.66 38.826C54.8165 39.3334 54.5444 40.4284 55.0516 41.2719L60.85 50.9095C60.2378 51.3927 59.6641 51.9227 59.1388 52.4983L51.7609 47.2923C50.9563 46.7249 49.8449 46.9169 49.2772 47.721C48.7096 48.5254 48.9018 49.6373 49.7059 50.2047L57.0831 55.4102C56.9137 55.7275 56.7571 56.0521 56.6118 56.3833L51.138 54.7619C50.1761 54.4771 49.1657 55.041 48.9083 56.0172C48.6594 56.9608 49.2618 57.9234 50.1974 58.2004L55.5998 59.8005C55.4779 60.5491 55.4118 61.316 55.4118 62.0986L55.4127 80.9077L51.9006 79.3404L39.9078 38.4376V27.4665H43.2046C44.1887 27.4665 44.9868 26.6684 44.9868 25.6843V19.9819C44.9868 18.9978 44.1887 18.1997 43.2046 18.1997H40.9053L42.3925 5.49092C42.4595 4.91764 42.2746 4.33029 41.8522 3.93678C41.1971 3.32576 40.2287 3.29857 39.5495 3.81467L36.534 6.1071L34.7959 1.23911C34.6037 0.701217 34.1872 0.257543 33.6425 0.0848083C32.7922 -0.185193 31.9072 0.205981 31.5153 0.960905L28.5136 6.74507L24.8206 3.86084C24.3575 3.49896 23.746 3.35365 23.1828 3.52217C22.3128 3.78232 21.7992 4.62186 21.9174 5.4778L23.6771 18.2002H21.1069C20.1228 18.2002 19.3247 18.9982 19.3247 19.9824V25.6852C19.3247 26.6694 20.1228 27.4674 21.1069 27.4674H24.4036V32.9424C24.4036 36.7843 27.2949 39.9615 31.0156 40.4183L33.9685 64.7414C34.0871 65.7185 34.9754 66.4146 35.9525 66.2958C36.9296 66.1772 37.6257 65.2889 37.5069 64.3118L34.6133 40.4767H36.7913L48.4515 80.2456L40.6306 90.0427L38.5332 72.7671C38.4146 71.79 37.5263 71.0939 36.5492 71.2127C35.5721 71.3313 34.8763 72.2196 34.9948 73.1967L37.5142 93.9467L32.633 100.061C32.1094 100.717 32.1144 101.649 32.6448 102.3L40.4427 111.861V118.218C40.4427 119.202 41.2407 120 42.2249 120H60.625C60.6255 120 60.626 120 60.6264 120C60.6271 120 60.6278 120 60.6285 120H98.8951C99.6538 120 100.345 119.518 100.592 118.766C100.746 118.296 100.679 117.781 100.449 117.343ZM28.0109 10.875C28.4283 11.201 28.9697 11.3243 29.4872 11.2118C30.005 11.0988 30.4456 10.7618 30.6898 10.2912L32.795 6.23413L33.9966 9.59883C34.1879 10.1339 34.6229 10.5459 35.1673 10.7079C35.7118 10.8699 36.301 10.7623 36.7536 10.4182L38.3717 9.1882L37.317 18.2004H27.2757L26.0506 9.3443L28.0109 10.875ZM36.3437 36.9123H31.9381C29.749 36.9123 27.968 35.1315 27.968 32.9424V27.4674H36.3437V36.9123ZM26.1861 23.9033H22.8891V21.7648H41.4226V23.9033H38.1259H26.1861ZM69.6691 51.407C74.7619 51.407 79.0315 54.9871 80.101 59.7618C77.4961 56.9634 73.7848 55.2084 69.6691 55.2084C65.5535 55.2084 61.8417 56.9634 59.237 59.7618C60.3065 54.9867 64.5764 51.407 69.6691 51.407ZM58.9774 77.5746C61.5921 80.5397 65.4147 82.4152 69.6691 82.4152C70.6535 82.4152 71.4513 81.6172 71.4513 80.633C71.4513 79.6489 70.6535 78.8508 69.6691 78.8508C63.9928 78.8508 59.3374 74.4042 58.9985 68.8116C59.3376 63.2191 63.9928 58.7725 69.6691 58.7725C75.562 58.7725 80.3562 63.5641 80.3614 69.4559V83.7814H61.851L58.9774 82.4989V77.5746ZM59.7264 116.436H44.0071V111.82L53.0919 99.7063C53.6823 98.9188 53.5227 97.8018 52.7355 97.2111C51.948 96.6207 50.8312 96.7801 50.2403 97.5676L42.166 108.334L36.3158 101.161L50.9551 82.8221L58.7055 86.2808L55.8009 90.1538C55.2105 90.9413 55.3701 92.0584 56.1574 92.649C56.4782 92.8895 56.8532 93.0055 57.2252 93.0055C57.767 93.0055 58.3021 92.7594 58.6523 92.2925L62.3622 87.3455H81.116L59.7264 116.436ZM64.1505 116.436L84.6305 88.5826L93.665 101.005L86.645 107.415C85.9179 108.078 85.8671 109.206 86.5304 109.933C86.8822 110.317 87.3638 110.513 87.8471 110.513C88.2762 110.513 88.7065 110.359 89.0483 110.047L91.4344 107.868L95.9434 116.436H64.1505V116.436Z" fill="#181A20"/>
<path d="M76.8558 64.9824L70.0757 63.3938C69.8083 63.331 69.5299 63.331 69.2627 63.3938L62.4824 64.9824C61.5241 65.2069 60.9292 66.1657 61.1535 67.1241C61.378 68.0825 62.3364 68.6773 63.2955 68.453L67.8871 67.3772V70.0447C67.8871 71.0288 68.6849 71.8269 69.6693 71.8269C70.6537 71.8269 71.4515 71.0288 71.4515 70.0447V67.3772L76.0429 68.453C76.1796 68.4851 76.3162 68.5004 76.4512 68.5004C77.2598 68.5004 77.9922 67.9461 78.1849 67.1243C78.4087 66.1658 77.8141 65.2069 76.8558 64.9824Z" fill="#181A20"/>
</g>
<defs>
<clipPath id="clip0_1185_20955">
<rect width="120" height="120" fill="white"/>
</clipPath>
</defs>
</svg>
