<svg width="120" height="120" viewBox="0 0 120 120" fill="none" xmlns="http://www.w3.org/2000/svg">
<path d="M118.125 97.5C118.125 92.3306 113.919 88.125 108.75 88.125C103.581 88.125 99.375 92.3306 99.375 97.5C99.375 102.026 102.602 105.814 106.875 106.686V114.375H98.4075C92.6456 107.437 87.6656 99.8756 83.5181 91.875H86.25C87.285 91.875 88.125 91.0369 88.125 90V82.5C88.125 81.4631 87.285 80.625 86.25 80.625H78.3431C77.3606 78.1612 76.4625 75.6525 75.6356 73.125H78.75C79.785 73.125 80.625 72.2869 80.625 71.25V63.75C80.625 62.7131 79.785 61.875 78.75 61.875H72.5044C70.4362 52.7569 69.375 43.4062 69.375 34.05V26.25V18.75C69.375 17.7131 68.535 16.875 67.5 16.875H65.625V11.25C65.625 10.2131 64.785 9.375 63.75 9.375H61.875V1.875H58.125V9.375H56.25C55.215 9.375 54.375 10.2131 54.375 11.25V16.875H52.5C51.465 16.875 50.625 17.7131 50.625 18.75V26.25V34.05C50.625 43.4062 49.5637 52.7569 47.4956 61.875H41.25C40.215 61.875 39.375 62.7131 39.375 63.75V71.25C39.375 72.2869 40.215 73.125 41.25 73.125H44.3644C43.5375 75.6525 42.6394 78.1594 41.6569 80.625H33.75C32.715 80.625 31.875 81.4631 31.875 82.5V90C31.875 91.0369 32.715 91.875 33.75 91.875H36.5288C32.3813 99.8812 27.375 107.434 21.6094 114.375H13.125V106.686C17.3981 105.814 20.625 102.028 20.625 97.5C20.625 92.3306 16.4194 88.125 11.25 88.125C6.08063 88.125 1.875 92.3306 1.875 97.5C1.875 102.026 5.10187 105.814 9.375 106.686V114.375H1.875V118.125H118.125V114.375H110.625V106.686C114.898 105.814 118.125 102.026 118.125 97.5ZM5.625 97.5C5.625 94.3987 8.14875 91.875 11.25 91.875C14.3513 91.875 16.875 94.3987 16.875 97.5C16.875 99.9413 15.3019 102.004 13.125 102.78V95.625H9.375V102.78C7.19812 102.004 5.625 99.9413 5.625 97.5ZM74.3287 80.625H68.8519L66.3525 73.125H71.6888C72.4875 75.6487 73.3744 78.15 74.3287 80.625V80.625ZM62.3981 73.125L64.8975 80.625H55.1006L57.6 73.125H62.3981ZM65.6644 36.7631L62.6513 33.75L65.625 30.7762V34.05C65.625 34.9556 65.6456 35.8594 65.6644 36.7631ZM60 31.0988L57.0262 28.125H62.9737L60 31.0988ZM54.375 30.7762L57.3488 33.75L54.3356 36.7631C54.3544 35.8594 54.375 34.9556 54.375 34.05V30.7762ZM53.8838 45.285L57.3488 48.75L52.9575 53.1412C53.3456 50.5331 53.655 47.9119 53.8838 45.285V45.285ZM55.1512 41.25L60 36.4012L64.8487 41.25L60 46.0988L55.1512 41.25ZM66.1163 45.285C66.345 47.9119 66.6544 50.5331 67.0425 53.1412L62.6513 48.75L66.1163 45.285ZM58.125 13.125H61.875V16.875H58.125V13.125ZM54.375 20.625H65.625V24.375H54.375V20.625ZM51.8231 59.5781L60 51.4012L68.1769 59.5781C68.3306 60.345 68.4956 61.11 68.6625 61.875H51.3375C51.5044 61.11 51.6694 60.345 51.8231 59.5781V59.5781ZM43.125 65.625H76.875V69.375H43.125V65.625ZM48.3113 73.125H53.6475L51.1481 80.625H45.6712C46.6256 78.15 47.5125 75.6487 48.3113 73.125V73.125ZM35.625 84.375H84.375V88.125H35.625V84.375ZM40.7325 91.875H79.2637C83.2387 99.8381 88.0294 107.391 93.5513 114.375H76.875V112.5C76.875 103.194 69.3037 95.625 60 95.625C50.6963 95.625 43.125 103.194 43.125 112.5V114.375H26.4506C31.9725 107.391 36.7575 99.8381 40.7325 91.875ZM73.125 114.375H46.875V112.5C46.875 105.264 52.7625 99.375 60 99.375C67.2375 99.375 73.125 105.264 73.125 112.5V114.375ZM103.125 97.5C103.125 94.3987 105.649 91.875 108.75 91.875C111.851 91.875 114.375 94.3987 114.375 97.5C114.375 99.9413 112.802 102.004 110.625 102.78V95.625H106.875V102.78C104.698 102.004 103.125 99.9413 103.125 97.5Z" fill="#181A20"/>
<path d="M9.375 61.875C10.89 61.875 12.3337 61.4288 13.56 60.5963C16.7625 62.2744 20.7356 62.2744 23.9381 60.5963C25.1663 61.4288 26.61 61.875 28.125 61.875C32.2613 61.875 35.625 58.5113 35.625 54.375C35.625 50.67 32.9269 47.5875 29.3944 46.9838C27.8588 42.4988 23.5931 39.375 18.75 39.375C13.9069 39.375 9.64125 42.4988 8.10562 46.9838C4.57313 47.5875 1.875 50.67 1.875 54.375C1.875 58.5113 5.23875 61.875 9.375 61.875ZM9.21188 50.6156C9.28125 50.625 9.43688 50.64 9.50813 50.6438C10.3988 50.6531 11.22 50.0344 11.4 49.1381C12.1012 45.6544 15.1912 43.125 18.75 43.125C22.3088 43.125 25.3988 45.6544 26.1 49.1381C26.2763 50.0156 27.0469 50.6438 27.9375 50.6438C27.9994 50.6438 28.0931 50.6381 28.2 50.625C30.2325 50.6644 31.875 52.3312 31.875 54.375C31.875 56.4431 30.1931 58.125 28.125 58.125C27.1125 58.125 26.1619 57.7219 25.4456 56.9925C25.0819 56.6212 24.5962 56.4281 24.105 56.4281C23.7319 56.4281 23.3569 56.5406 23.0325 56.7675C20.4919 58.5431 17.0081 58.5431 14.4675 56.7675C13.7156 56.2425 12.6956 56.3381 12.0544 56.9925C11.3381 57.7219 10.3875 58.125 9.375 58.125C7.30687 58.125 5.625 56.4431 5.625 54.375C5.625 52.3069 7.30688 50.625 9.21188 50.6156V50.6156Z" fill="#181A20"/>
<path d="M91.875 61.875C93.39 61.875 94.8337 61.4288 96.06 60.5963C99.2625 62.2744 103.236 62.2744 106.438 60.5963C107.666 61.4288 109.11 61.875 110.625 61.875C114.761 61.875 118.125 58.5113 118.125 54.375C118.125 50.67 115.427 47.5875 111.894 46.9838C110.359 42.4988 106.093 39.375 101.25 39.375C96.4069 39.375 92.1413 42.4988 90.6056 46.9838C87.0731 47.5875 84.375 50.67 84.375 54.375C84.375 58.5113 87.7387 61.875 91.875 61.875V61.875ZM91.7119 50.6156C91.7812 50.625 91.9387 50.64 92.0081 50.6438C92.9081 50.6531 93.72 50.0344 93.9 49.1381C94.6013 45.6544 97.6912 43.125 101.25 43.125C104.809 43.125 107.899 45.6544 108.6 49.1381C108.776 50.0156 109.547 50.6438 110.438 50.6438C110.501 50.6438 110.593 50.6381 110.7 50.625C112.733 50.6644 114.375 52.3312 114.375 54.375C114.375 56.4431 112.693 58.125 110.625 58.125C109.612 58.125 108.662 57.7219 107.946 56.9925C107.582 56.6212 107.096 56.4281 106.605 56.4281C106.232 56.4281 105.857 56.5406 105.533 56.7675C102.992 58.5431 99.5081 58.5431 96.9675 56.7675C96.2156 56.2425 95.1938 56.3381 94.5544 56.9925C93.8381 57.7219 92.8875 58.125 91.875 58.125C89.8069 58.125 88.125 56.4431 88.125 54.375C88.125 52.3069 89.8069 50.625 91.7119 50.6156V50.6156Z" fill="#181A20"/>
</svg>
