<svg width="70" height="70" viewBox="0 0 70 70" fill="none" xmlns="http://www.w3.org/2000/svg">
<path d="M61.7969 14.2188H20.2344C19.9443 14.2188 19.6661 14.334 19.461 14.5391C19.2559 14.7442 19.1406 15.0224 19.1406 15.3125C19.1406 15.6026 19.2559 15.8808 19.461 16.0859C19.6661 16.291 19.9443 16.4062 20.2344 16.4062H22.4219V53.5938C22.4227 54.103 22.5417 54.6051 22.7694 55.0606C22.9972 55.5161 23.3275 55.9125 23.7344 56.2188L40.3594 68.6875C40.5487 68.8295 40.779 68.9062 41.0156 68.9062C41.2523 68.9062 41.4825 68.8295 41.6719 68.6875L58.2969 56.2188C58.7035 55.9123 59.0336 55.5158 59.2614 55.0604C59.4891 54.6049 59.6082 54.1029 59.6094 53.5938V16.4062H61.7969C62.087 16.4062 62.3652 16.291 62.5703 16.0859C62.7754 15.8808 62.8906 15.6026 62.8906 15.3125C62.8906 15.0224 62.7754 14.7442 62.5703 14.5391C62.3652 14.334 62.087 14.2188 61.7969 14.2188ZM57.4219 53.5938C57.4219 53.7635 57.3823 53.931 57.3064 54.0829C57.2305 54.2348 57.1202 54.3669 56.9844 54.4688L41.0156 66.4453L25.0469 54.4688C24.911 54.3669 24.8008 54.2348 24.7248 54.0829C24.6489 53.931 24.6094 53.7635 24.6094 53.5938V16.4062H26.7969V51.4062C26.7977 51.9155 26.9167 52.4176 27.1444 52.8731C27.3722 53.3286 27.7025 53.725 28.1094 54.0312L40.3594 63.2188C40.5487 63.3607 40.779 63.4375 41.0156 63.4375C41.2523 63.4375 41.4825 63.3607 41.6719 63.2188L53.9219 54.0312C54.3285 53.7248 54.6586 53.3283 54.8864 52.8729C55.1141 52.4174 55.2332 51.9154 55.2344 51.4062V16.4062H57.4219V53.5938Z" fill="#DDDDDD"/>
<path d="M38.8284 15.2643V9.81746C38.8284 8.94722 38.4827 8.11262 37.8673 7.49727C37.252 6.88191 36.4174 6.53621 35.5471 6.53621H30.2709L26.585 1.5148C26.4786 1.38346 26.3443 1.27753 26.1918 1.20477C26.0392 1.132 25.8724 1.09424 25.7034 1.09424C25.5344 1.09424 25.3675 1.132 25.215 1.20477C25.0625 1.27753 24.9282 1.38346 24.8218 1.5148L21.1359 6.53621H15.8596C14.9894 6.53621 14.1548 6.88191 13.5394 7.49727C12.9241 8.11262 12.5784 8.94722 12.5784 9.81746V15.2643C10.8446 16.9872 9.46866 19.0358 8.52973 21.2925C7.5908 23.5491 7.10742 25.9692 7.10742 28.4134C7.10742 30.8576 7.5908 33.2777 8.52973 35.5343C9.46866 37.791 10.8446 39.8396 12.5784 41.5625V47.0093C12.5784 47.8796 12.9241 48.7142 13.5394 49.3295C14.1548 49.9449 14.9894 50.2906 15.8596 50.2906H21.1359L24.8218 55.3131C24.9234 55.4514 25.0562 55.5639 25.2093 55.6415C25.3625 55.719 25.5317 55.7594 25.7034 55.7594C25.8751 55.7594 26.0443 55.719 26.1974 55.6415C26.3506 55.5639 26.4833 55.4514 26.585 55.3131L30.2709 50.2906H35.5471C36.4174 50.2906 37.252 49.9449 37.8673 49.3295C38.4827 48.7142 38.8284 47.8796 38.8284 47.0093V41.5625C40.5615 39.8397 41.9369 37.7913 42.8754 35.5351C43.814 33.2788 44.2972 30.8593 44.2972 28.4156C44.2972 25.9719 43.814 23.5524 42.8754 21.2961C41.9369 19.0399 40.5615 16.9914 38.8284 15.2687V15.2643ZM14.7659 9.81746C14.7659 9.52738 14.8811 9.24918 15.0862 9.04406C15.2914 8.83894 15.5696 8.72371 15.8596 8.72371H21.6893C21.861 8.72372 22.0302 8.68333 22.1834 8.60581C22.3365 8.52828 22.4693 8.4158 22.5709 8.27746L25.7034 4.01184L28.8359 8.27746C28.9375 8.4158 29.0703 8.52828 29.2234 8.60581C29.3766 8.68333 29.5458 8.72372 29.7175 8.72371H35.5471C35.8372 8.72371 36.1154 8.83894 36.3205 9.04406C36.5257 9.24918 36.6409 9.52738 36.6409 9.81746V13.3711C33.4617 11.0614 29.633 9.8175 25.7034 9.8175C21.7738 9.8175 17.9451 11.0614 14.7659 13.3711V9.81746ZM36.6409 47.005C36.6409 47.295 36.5257 47.5732 36.3205 47.7784C36.1154 47.9835 35.8372 48.0987 35.5471 48.0987H29.7175C29.5457 48.0988 29.3764 48.1394 29.2232 48.2171C29.0701 48.2948 28.9374 48.4075 28.8359 48.5461L25.7034 52.8117L22.5709 48.5461C22.4694 48.4075 22.3367 48.2948 22.1835 48.2171C22.0304 48.1394 21.8611 48.0988 21.6893 48.0987H15.8596C15.5696 48.0987 15.2914 47.9835 15.0862 47.7784C14.8811 47.5732 14.7659 47.295 14.7659 47.005V43.4525C17.9453 45.7614 21.774 47.005 25.7034 47.005C29.6328 47.005 33.4614 45.7614 36.6409 43.4525V47.005ZM36.9821 40.3331C34.2399 42.929 30.6861 44.4995 26.9205 44.7796C23.1548 45.0598 19.4078 44.0324 16.3117 41.8708C13.2155 39.7092 10.9598 36.5457 9.92509 32.9142C8.89039 29.2826 9.14006 25.4053 10.632 21.9365C12.1239 18.4677 14.7667 15.6197 18.1145 13.873C21.4623 12.1264 25.3102 11.588 29.0088 12.3488C32.7075 13.1096 36.0304 15.1229 38.4171 18.0491C40.8037 20.9753 42.1079 24.6351 42.1096 28.4112C42.1143 30.6424 41.6617 32.8509 40.7798 34.9004C39.8979 36.9499 38.6055 38.7969 36.9821 40.3276V40.3331Z" fill="#181A20"/>
</svg>
