<svg width="70" height="70" viewBox="0 0 70 70" fill="none" xmlns="http://www.w3.org/2000/svg">
<path d="M43.75 20.7812C41.3704 20.7812 39.0443 21.4869 37.0658 22.8089C35.0873 24.1309 33.5452 26.0099 32.6346 28.2083C31.724 30.4068 31.4857 32.8258 31.9499 35.1597C32.4142 37.4935 33.56 39.6373 35.2426 41.3199C36.9252 43.0025 39.069 44.1483 41.4028 44.6126C43.7367 45.0768 46.1557 44.8385 48.3542 43.9279C50.5526 43.0173 52.4316 41.4752 53.7536 39.4967C55.0756 37.5182 55.7813 35.192 55.7813 32.8125C55.7775 29.6228 54.5087 26.5648 52.2532 24.3093C49.9977 22.0538 46.9397 20.785 43.75 20.7812ZM51.1252 31.5098L47.6077 34.0659L48.9508 38.2025C49.0218 38.4221 49.0216 38.6586 48.9501 38.8781C48.8785 39.0975 48.7394 39.2888 48.5526 39.4243C48.3658 39.5599 48.1409 39.6329 47.91 39.6329C47.6792 39.6329 47.4543 39.5598 47.2675 39.4242L43.75 36.8659L40.2325 39.422C40.0457 39.5576 39.8208 39.6307 39.59 39.6307C39.3591 39.6307 39.1342 39.5577 38.9474 39.4222C38.7606 39.2866 38.6215 39.0954 38.5499 38.8759C38.4784 38.6564 38.4782 38.4199 38.5492 38.2003L39.8923 34.0637L36.3748 31.5077C36.1889 31.3716 36.0507 31.1803 35.9799 30.961C35.9091 30.7417 35.9094 30.5057 35.9807 30.2866C36.052 30.0674 36.1907 29.8764 36.3769 29.7408C36.5632 29.6052 36.7876 29.5318 37.018 29.5312H41.3656L42.7098 25.3969C42.7818 25.178 42.9209 24.9875 43.1075 24.8524C43.2941 24.7174 43.5186 24.6446 43.7489 24.6446C43.9793 24.6446 44.2037 24.7174 44.3903 24.8524C44.5769 24.9875 44.7161 25.178 44.788 25.3969L46.1344 29.5312H50.482C50.7125 29.5318 50.9368 29.6052 51.1231 29.7408C51.3093 29.8764 51.448 30.0674 51.5193 30.2866C51.5906 30.5057 51.5909 30.7417 51.5201 30.961C51.4493 31.1803 51.3111 31.3716 51.1252 31.5077V31.5098Z" fill="#DDDDDD"/>
<path d="M43.7503 14.2188C40.2088 14.217 36.7405 15.2273 33.7539 17.1306C30.7673 19.034 28.3868 21.7511 26.8928 24.9621C25.3987 28.173 24.8533 31.7441 25.3208 35.2546C25.7883 38.7651 27.2493 42.069 29.5316 44.777V63.4375C29.5316 63.6538 29.5958 63.8652 29.716 64.045C29.8361 64.2249 30.007 64.365 30.2068 64.4478C30.4066 64.5305 30.6265 64.5522 30.8386 64.51C31.0508 64.4678 31.2456 64.3637 31.3986 64.2108L33.9066 61.7017V67.8125C33.9066 68.0288 33.9708 68.2402 34.091 68.42C34.2111 68.5999 34.382 68.74 34.5818 68.8228C34.7816 68.9055 35.0015 68.9272 35.2136 68.885C35.4258 68.8428 35.6206 68.7387 35.7736 68.5858L43.7503 60.608L51.727 68.5836C51.8799 68.7364 52.0745 68.8405 52.2865 68.8827C52.4984 68.925 52.7181 68.9035 52.9178 68.821C53.1176 68.7385 53.2884 68.5987 53.4087 68.4192C53.5291 68.2397 53.5936 68.0286 53.5941 67.8125V61.7017L56.102 64.2086C56.2549 64.3614 56.4495 64.4655 56.6615 64.5077C56.8734 64.55 57.0931 64.5285 57.2928 64.446C57.4926 64.3635 57.6634 64.2237 57.7837 64.0442C57.9041 63.8647 57.9686 63.6536 57.9691 63.4375V44.777C60.2514 42.069 61.7123 38.7651 62.1798 35.2546C62.6473 31.7441 62.1019 28.173 60.6078 24.9621C59.1138 21.7511 56.7333 19.034 53.7467 17.1306C50.7601 15.2273 47.2918 14.217 43.7503 14.2188ZM33.9066 58.6075L31.7191 60.795V46.993C32.4199 47.563 33.15 48.0961 33.9066 48.5898V58.6075ZM55.7816 60.795L53.5941 58.6075V48.5898C54.3528 48.0993 55.0832 47.5662 55.7816 46.993V60.795ZM43.7503 47.0312C40.9381 47.0312 38.1891 46.1973 35.8508 44.635C33.5125 43.0726 31.6901 40.8519 30.6139 38.2538C29.5377 35.6556 29.2561 32.7967 29.8048 30.0386C30.3534 27.2804 31.7076 24.7469 33.6961 22.7583C35.6847 20.7698 38.2182 19.4156 40.9764 18.867C43.7345 18.3183 46.5935 18.5999 49.1916 19.6761C51.7897 20.7523 54.0104 22.5747 55.5728 24.913C57.1351 27.2512 57.9691 30.0003 57.9691 32.8125C57.9647 36.5822 56.4653 40.1963 53.7997 42.8619C51.1341 45.5275 47.52 47.0269 43.7503 47.0312Z" fill="#DDDDDD"/>
<path d="M21.875 12.0312H30.625C30.9151 12.0312 31.1933 11.916 31.3984 11.7109C31.6035 11.5058 31.7188 11.2276 31.7188 10.9375C31.7188 10.6474 31.6035 10.3692 31.3984 10.1641C31.1933 9.95898 30.9151 9.84375 30.625 9.84375H21.875C21.5849 9.84375 21.3067 9.95898 21.1016 10.1641C20.8965 10.3692 20.7812 10.6474 20.7812 10.9375C20.7812 11.2276 20.8965 11.5058 21.1016 11.7109C21.3067 11.916 21.5849 12.0312 21.875 12.0312Z" fill="#181A20"/>
<path d="M44.8438 30.7234V4.375C44.8438 3.50476 44.498 2.67016 43.8827 2.05481C43.2673 1.43945 42.4327 1.09375 41.5625 1.09375H10.9375C10.0673 1.09375 9.23266 1.43945 8.61731 2.05481C8.00195 2.67016 7.65625 3.50476 7.65625 4.375V52.5C7.65625 53.3702 8.00195 54.2048 8.61731 54.8202C9.23266 55.4355 10.0673 55.7812 10.9375 55.7812H40.4688C40.7538 55.7712 41.0257 55.6585 41.2344 55.4641L43.75 52.9528L46.258 55.4608C46.4109 55.6137 46.6058 55.7178 46.8179 55.76C47.0301 55.8022 47.25 55.7805 47.4498 55.6978C47.6496 55.615 47.8204 55.4749 47.9406 55.295C48.0608 55.1152 48.125 54.9038 48.125 54.6875V42.0656C49.0458 41.2437 49.7156 40.1782 50.057 38.9921C50.3984 37.8059 50.3975 36.5474 50.0545 35.3617C49.7115 34.176 49.0403 33.1115 48.1183 32.2908C47.1964 31.4701 46.0612 30.9268 44.8438 30.7234ZM39.375 53.5938H10.9375C10.6474 53.5938 10.3692 53.4785 10.1641 53.2734C9.95898 53.0683 9.84375 52.7901 9.84375 52.5V4.375C9.84375 4.08492 9.95898 3.80672 10.1641 3.6016C10.3692 3.39648 10.6474 3.28125 10.9375 3.28125H41.5625C41.8526 3.28125 42.1308 3.39648 42.3359 3.6016C42.541 3.80672 42.6562 4.08492 42.6562 4.375V30.7158C41.4381 30.9217 40.3027 31.4674 39.3809 32.29C38.4591 33.1126 37.7882 34.1787 37.4454 35.3657C37.1026 36.5526 37.1018 37.8123 37.4432 38.9997C37.7845 40.187 38.4542 41.254 39.375 42.0777V53.5938ZM45.9375 52.0472L44.5233 50.633C44.3182 50.4279 44.04 50.3127 43.75 50.3127C43.46 50.3127 43.1818 50.4279 42.9767 50.633L41.5625 52.0472V43.3803C42.9792 43.8732 44.5208 43.8732 45.9375 43.3803V52.0472ZM46.375 40.6875C45.6143 41.2434 44.6965 41.543 43.7544 41.543C42.8122 41.543 41.8945 41.2434 41.1338 40.6875C40.3992 40.1366 39.8565 39.3685 39.5828 38.492C39.309 37.6155 39.3179 36.6751 39.6083 35.804C39.8986 34.9329 40.4557 34.1752 41.2006 33.6383C41.9456 33.1014 42.8405 32.8125 43.7588 32.8125C44.677 32.8125 45.5719 33.1014 46.3169 33.6383C47.0618 34.1752 47.6189 34.9329 47.9092 35.804C48.1996 36.6751 48.2085 37.6155 47.9347 38.492C47.661 39.3685 47.1183 40.1366 46.3838 40.6875H46.375Z" fill="#181A20"/>
<path d="M35 18.5938H17.5C17.2099 18.5938 16.9317 18.709 16.7266 18.9141C16.5215 19.1192 16.4062 19.3974 16.4062 19.6875C16.4062 19.9776 16.5215 20.2558 16.7266 20.4609C16.9317 20.666 17.2099 20.7812 17.5 20.7812H35C35.2901 20.7812 35.5683 20.666 35.7734 20.4609C35.9785 20.2558 36.0938 19.9776 36.0938 19.6875C36.0938 19.3974 35.9785 19.1192 35.7734 18.9141C35.5683 18.709 35.2901 18.5938 35 18.5938Z" fill="#181A20"/>
<path d="M35 26.25H17.5C17.2099 26.25 16.9317 26.3652 16.7266 26.5704C16.5215 26.7755 16.4062 27.0537 16.4062 27.3438C16.4062 27.6338 16.5215 27.912 16.7266 28.1171C16.9317 28.3223 17.2099 28.4375 17.5 28.4375H35C35.2901 28.4375 35.5683 28.3223 35.7734 28.1171C35.9785 27.912 36.0938 27.6338 36.0938 27.3438C36.0938 27.0537 35.9785 26.7755 35.7734 26.5704C35.5683 26.3652 35.2901 26.25 35 26.25Z" fill="#181A20"/>
<path d="M35 33.9062H17.5C17.2099 33.9062 16.9317 34.0215 16.7266 34.2266C16.5215 34.4317 16.4062 34.7099 16.4062 35C16.4062 35.2901 16.5215 35.5683 16.7266 35.7734C16.9317 35.9785 17.2099 36.0938 17.5 36.0938H35C35.2901 36.0938 35.5683 35.9785 35.7734 35.7734C35.9785 35.5683 36.0938 35.2901 36.0938 35C36.0938 34.7099 35.9785 34.4317 35.7734 34.2266C35.5683 34.0215 35.2901 33.9062 35 33.9062Z" fill="#181A20"/>
</svg>
