<svg width="70" height="70" viewBox="0 0 70 70" fill="none" xmlns="http://www.w3.org/2000/svg">
<path d="M48.125 27.3438H30.625C30.0209 27.3438 29.5312 27.8334 29.5312 28.4375V67.8125C29.5312 68.4166 30.0209 68.9062 30.625 68.9062H48.125C48.7291 68.9062 49.2188 68.4166 49.2188 67.8125V28.4375C49.2188 27.8334 48.7291 27.3438 48.125 27.3438Z" fill="#DDDDDD"/>
<path d="M36.3509 21.1357L35.5175 23.7268C35.4463 23.9469 35.4467 24.1838 35.5187 24.4037C35.5906 24.6235 35.7304 24.8148 35.9179 24.9502C36.1054 25.0856 36.331 25.158 36.5623 25.1571C36.7936 25.1562 37.0186 25.0821 37.2051 24.9453L39.3751 23.3539L41.5451 24.9453C41.7316 25.0821 41.9567 25.1562 42.1879 25.1571C42.4192 25.158 42.6448 25.0856 42.8323 24.9502C43.0199 24.8148 43.1596 24.6235 43.2316 24.4037C43.3035 24.1838 43.304 23.9469 43.2328 23.7268L42.3993 21.1357L44.5803 19.5367C44.7661 19.4002 44.904 19.2086 44.9744 18.9891C45.0448 18.7696 45.044 18.5335 44.9722 18.3144C44.9004 18.0954 44.7612 17.9046 44.5746 17.7694C44.3879 17.6342 44.1633 17.5613 43.9328 17.5614H41.2476L40.4164 14.9768C40.3445 14.758 40.2053 14.5675 40.0187 14.4324C39.8321 14.2973 39.6077 14.2246 39.3773 14.2246C39.147 14.2246 38.9225 14.2973 38.7359 14.4324C38.5494 14.5675 38.4102 14.758 38.3383 14.9768L37.507 17.5614H34.8175C34.587 17.5613 34.3623 17.6342 34.1757 17.7694C33.989 17.9046 33.8498 18.0954 33.778 18.3144C33.7062 18.5335 33.7055 18.7696 33.7759 18.9891C33.8463 19.2086 33.9842 19.4002 34.17 19.5367L36.3509 21.1357Z" fill="#DDDDDD"/>
<path d="M26.25 49.2188H13.125C12.5209 49.2188 12.0312 49.7084 12.0312 50.3125V67.8125C12.0312 68.4166 12.5209 68.9062 13.125 68.9062H26.25C26.8541 68.9062 27.3438 68.4166 27.3438 67.8125V50.3125C27.3438 49.7084 26.8541 49.2188 26.25 49.2188Z" fill="#DDDDDD"/>
<path d="M65.625 40.4688H52.5C51.8959 40.4688 51.4062 40.9584 51.4062 41.5625V67.8125C51.4062 68.4166 51.8959 68.9062 52.5 68.9062H65.625C66.2291 68.9062 66.7188 68.4166 66.7188 67.8125V41.5625C66.7188 40.9584 66.2291 40.4688 65.625 40.4688Z" fill="#DDDDDD"/>
<path d="M33.9063 15.3125C33.1183 15.3164 32.3465 15.5353 31.6739 15.9458C31.598 15.1952 31.3285 14.4772 30.8917 13.8621C30.455 13.2471 29.8659 12.756 29.1823 12.437C28.4987 12.118 27.7439 11.982 26.9919 12.0425C26.24 12.1029 25.5166 12.3575 24.8927 12.7816C24.6863 12.1718 24.3464 11.6159 23.8976 11.1544C23.4489 10.6929 22.9027 10.3375 22.2989 10.1142C21.6952 9.89089 21.0492 9.80533 20.4081 9.86375C19.7671 9.92218 19.1472 10.1231 18.5938 10.4519V5.46875C18.5938 4.30843 18.1328 3.19563 17.3123 2.37516C16.4919 1.55469 15.3791 1.09375 14.2188 1.09375C13.0584 1.09375 11.9456 1.55469 11.1252 2.37516C10.3047 3.19563 9.84375 4.30843 9.84375 5.46875V19.1406H7.65625C6.59016 19.1516 5.56316 19.5435 4.7608 20.2456C3.95844 20.9477 3.43365 21.9136 3.28125 22.9688V29.9578C3.28024 31.6971 3.65602 33.4159 4.38276 34.9961C5.10949 36.5763 6.16993 37.9802 7.4911 39.1114C8.57261 40.0374 9.44069 41.1868 10.0356 42.4803C10.6306 43.7738 10.9383 45.1809 10.9375 46.6047V47.1866C9.90759 47.4516 9.00984 48.0835 8.41274 48.9635C7.81564 49.8435 7.56024 50.9112 7.6945 51.9662C7.82875 53.0212 8.34342 53.9909 9.1419 54.6933C9.94038 55.3957 10.9678 55.7826 12.0313 55.7813H30.625C31.6885 55.7826 32.7159 55.3957 33.5144 54.6933C34.3128 53.9909 34.8275 53.0212 34.9618 51.9662C35.096 50.9112 34.8406 49.8435 34.2435 48.9635C33.6464 48.0835 32.7487 47.4516 31.7188 47.1866V46.2022C31.7271 43.5236 32.7909 40.9562 34.6795 39.0567C35.8219 37.9154 36.728 36.56 37.346 35.0682C37.964 33.5764 38.2818 31.9773 38.2812 30.3625V19.6875C38.2812 18.5272 37.8203 17.4144 36.9998 16.5939C36.1794 15.7734 35.0666 15.3125 33.9063 15.3125ZM25.1563 16.4063C25.1563 15.8261 25.3867 15.2697 25.797 14.8595C26.2072 14.4492 26.7636 14.2188 27.3438 14.2188C27.9239 14.2188 28.4803 14.4492 28.8905 14.8595C29.3008 15.2697 29.5313 15.8261 29.5313 16.4063V21.875C29.5313 22.4552 29.3008 23.0116 28.8905 23.4218C28.4803 23.832 27.9239 24.0625 27.3438 24.0625C26.7636 24.0625 26.2072 23.832 25.797 23.4218C25.3867 23.0116 25.1563 22.4552 25.1563 21.875V16.4063ZM18.5938 14.2188C18.5938 13.6386 18.8242 13.0822 19.2345 12.672C19.6447 12.2617 20.2011 12.0313 20.7813 12.0313C21.3614 12.0313 21.9178 12.2617 22.328 12.672C22.7383 13.0822 22.9688 13.6386 22.9688 14.2188V20.102C22.1936 19.4792 21.2288 19.14 20.2344 19.1406H18.5938V14.2188ZM12.0313 5.46875C12.0313 4.88859 12.2617 4.33219 12.672 3.92195C13.0822 3.51172 13.6386 3.28125 14.2188 3.28125C14.7989 3.28125 15.3553 3.51172 15.7655 3.92195C16.1758 4.33219 16.4063 4.88859 16.4063 5.46875V19.1406H12.0313V5.46875ZM32.8125 51.4063C32.8125 51.9864 32.582 52.5428 32.1718 52.9531C31.7616 53.3633 31.2052 53.5938 30.625 53.5938H12.0313C11.4511 53.5938 10.8947 53.3633 10.4845 52.9531C10.0742 52.5428 9.84375 51.9864 9.84375 51.4063C9.84375 50.8261 10.0742 50.2697 10.4845 49.8595C10.8947 49.4492 11.4511 49.2188 12.0313 49.2188H30.625C31.2052 49.2188 31.7616 49.4492 32.1718 49.8595C32.582 50.2697 32.8125 50.8261 32.8125 51.4063ZM36.0938 30.3625C36.094 31.6897 35.8326 33.0039 35.3246 34.2299C34.8165 35.456 34.0718 36.5699 33.133 37.508C30.835 39.8182 29.5408 42.9415 29.5313 46.2V47.0313H13.125V46.6047C13.126 44.8654 12.7502 43.1466 12.0235 41.5664C11.2968 39.9863 10.2363 38.5823 8.91516 37.4511C7.83365 36.5251 6.96556 35.3758 6.37062 34.0822C5.77568 32.7887 5.468 31.3816 5.46875 29.9578V23.5156C5.46875 22.9355 5.69922 22.3791 6.10946 21.9688C6.51969 21.5586 7.07609 21.3281 7.65625 21.3281H20.2344C20.8145 21.3281 21.3709 21.5586 21.7812 21.9688C22.1914 22.3791 22.4219 22.9355 22.4219 23.5156C22.4219 24.0958 22.1914 24.6522 21.7812 25.0624C21.3709 25.4727 20.8145 25.7031 20.2344 25.7031H13.125C12.8349 25.7031 12.5567 25.8184 12.3516 26.0235C12.1465 26.2286 12.0313 26.5068 12.0313 26.7969C12.0313 27.087 12.1465 27.3652 12.3516 27.5703C12.5567 27.7754 12.8349 27.8906 13.125 27.8906H20.2344C21.1268 27.8882 21.9971 27.6119 22.7275 27.0991C23.4578 26.5862 24.0132 25.8615 24.3184 25.0228C24.7423 25.4355 25.2463 25.7569 25.7992 25.9672C26.3521 26.1775 26.9423 26.2723 27.5333 26.2456C28.1242 26.219 28.7035 26.0715 29.2352 25.8123C29.767 25.553 30.24 25.1876 30.625 24.7384C31.2821 25.512 32.1924 26.0273 33.1938 26.1927C34.1951 26.3581 35.2228 26.163 36.0938 25.6419V30.3625ZM36.0938 21.875C36.0938 22.4552 35.8633 23.0116 35.453 23.4218C35.0428 23.832 34.4864 24.0625 33.9063 24.0625C33.3261 24.0625 32.7697 23.832 32.3595 23.4218C31.9492 23.0116 31.7188 22.4552 31.7188 21.875V19.6875C31.7188 19.1073 31.9492 18.5509 32.3595 18.1407C32.7697 17.7305 33.3261 17.5 33.9063 17.5C34.4864 17.5 35.0428 17.7305 35.453 18.1407C35.8633 18.5509 36.0938 19.1073 36.0938 19.6875V21.875Z" fill="#181A20"/>
</svg>
