<svg width="330" height="168" viewBox="0 0 330 168" fill="none" xmlns="http://www.w3.org/2000/svg">
<g clip-path="url(#clip0_921_20926)">
<path d="M158.374 161.466C158.374 164.426 126.034 166.825 86.1397 166.825C46.2453 166.825 13.9048 164.426 13.9048 161.466C13.9048 158.506 46.2453 156.107 86.1397 156.107C126.034 156.107 158.374 158.506 158.374 161.466Z" fill="#E5E3E1"/>
<path d="M99.2144 76.2693H177.902V70.9268H99.2144V76.2693Z" fill="#BAB4A8"/>
<path d="M99.2144 70.9268L115.789 46.8324H186.503L177.902 70.9268H99.2144Z" fill="#E2582D"/>
<path d="M101.437 130.752H177.902V76.2695H101.437V130.752Z" fill="#E5E3E1"/>
<path d="M148.875 79.353H144.8C144.806 79.2985 144.813 79.2439 144.82 79.1894C144.952 78.1396 145.062 77.1465 145.133 76.2693H150.891H148.875V79.353Z" fill="#CECAC2"/>
<path d="M155.035 130.752H148.875V92.131H155.035V130.752ZM148.875 86.7108V79.3531H150.891V80.3356L151.892 79.3531H155.035V83.0824L148.875 86.7108Z" fill="#CECAC2"/>
<path d="M155.035 79.353H151.892L155.035 76.2693V79.353ZM150.891 79.353H148.875V76.2693H150.891V79.353Z" fill="#C3BEB4"/>
<path d="M300.52 114.806C300.52 114.806 301.726 107.558 304.695 106.344C307.665 105.13 307.424 104.045 307.995 100.364C308.566 96.6837 313.568 98.7168 315.369 95.5404C317.171 92.3648 318.937 90.4692 320.413 94.1387C321.889 97.8089 319.689 101.446 317.422 102.35C315.154 103.255 318.226 107.187 316.392 109.52C314.557 111.853 312.242 112.541 312.916 115.577C313.591 118.613 313.656 120.299 312.508 121.9C311.36 123.502 309.445 125.299 309.445 125.299L296.505 123.292C296.505 123.292 294.71 118.511 297.266 118.384C299.822 118.257 300.716 118.291 300.52 114.806Z" fill="#678742"/>
<path d="M301.856 124.122C301.856 124.122 306.353 117.281 310.608 108.833C314.863 100.383 314.863 100.383 314.863 100.383C314.863 100.383 307.314 119.524 301.856 124.122Z" fill="#37664A"/>
<path d="M316.271 133.497C316.271 133.497 316.333 129.081 318.447 128.086C320.561 127.09 320.25 126.469 320.25 124.23C320.25 121.991 324.292 122.737 325.287 120.685C326.282 118.632 327.401 117.343 328.956 119.388C330.51 121.431 329.266 123.795 327.65 124.541C326.033 125.287 328.831 127.339 327.712 128.894C326.593 130.449 324.914 131.072 325.784 132.813C326.655 134.554 326.903 135.549 326.219 136.606C325.536 137.663 324.292 138.907 324.292 138.907H314.219C314.219 138.907 312.292 136.233 314.219 135.922C316.146 135.612 316.831 135.549 316.271 133.497Z" fill="#37664A"/>
<path d="M318.385 138.907C318.385 138.907 320.997 134.429 323.235 129.019C325.474 123.608 325.474 123.608 325.474 123.608C325.474 123.608 321.991 135.674 318.385 138.907Z" fill="#37664A"/>
<path d="M304.191 130.137C304.191 130.137 304.291 122.979 307.718 121.366C311.145 119.753 310.641 118.745 310.641 115.116C310.641 111.487 317.192 112.696 318.805 109.37C320.418 106.042 322.232 103.953 324.751 107.266C327.271 110.579 325.256 114.41 322.635 115.62C320.014 116.83 324.55 120.156 322.736 122.677C320.921 125.197 318.2 126.205 319.611 129.028C321.022 131.851 321.426 133.464 320.317 135.177C319.208 136.892 317.192 138.907 317.192 138.907H300.864C300.864 138.907 297.74 134.573 300.864 134.069C303.989 133.564 305.098 133.464 304.191 130.137Z" fill="#99B746"/>
<path d="M307.617 138.907C307.617 138.907 311.85 131.649 315.479 122.878C319.107 114.108 319.107 114.108 319.107 114.108C319.107 114.108 313.463 133.665 307.617 138.907Z" fill="#678742"/>
<path d="M150.891 138.907C150.891 138.907 141.726 135.819 142.06 133.117C142.337 130.88 146.053 131.952 146.053 131.952C146.053 131.952 139.836 127.942 143.061 124.873C145.234 122.807 148.169 127.314 148.169 127.314C148.169 127.314 146.966 123.1 148.981 122.999C150.998 122.899 151.596 128.624 151.596 128.624C151.596 128.624 152.705 121.366 155.628 122.778C158.551 124.189 157.14 138.404 157.14 138.404L150.891 138.907Z" fill="#678742"/>
<path d="M223.324 136.23H305.971V78.3027H223.324V136.23Z" fill="#BAB4A8"/>
<path d="M155.035 76.2694V136.23H223.324V76.2694L188.519 42.1274L155.035 76.2694Z" fill="#E5E3E1"/>
<path d="M311.081 76.2671H224.87L219.951 71.2018L212.389 63.4189L206.293 57.1447L202.478 53.2174L198.367 48.983L194.448 44.9503L191.706 42.1274L187.885 38.1918H274.393L278.183 42.1274L280.908 44.9503L284.795 48.983L288.875 53.2174L292.656 57.1447L298.704 63.4189L306.203 71.2018L311.081 76.2671Z" fill="#E2582D"/>
<path d="M150.891 76.1013V80.3357L188.082 43.8415L224.87 80.3357V75.8996L187.88 38.1964L150.891 76.1013Z" fill="#F98D43"/>
<path d="M224.87 80.3357H311.078V76.2696H224.87V80.3357Z" fill="#E2582D"/>
<path d="M143.096 90.1143L155.191 82.9904H202.091L190.937 90.1143H143.096Z" fill="#F98D43"/>
<path d="M202.091 82.9903V85.5443L191.206 92.1309H143.096V90.1142H190.937L202.091 82.9903Z" fill="#E2582D"/>
<path d="M305.971 82.9905H223.324V78.8024L224.87 80.3357H305.971V82.9905Z" fill="#89857C"/>
<path d="M223.324 82.9905L187.88 47.6388L155.035 80.3357V76.2694L188.082 43.8415L223.324 78.8024V82.9905Z" fill="#A09D9A"/>
<path d="M297.505 128.423H273.719V88.3672H297.505V128.423Z" fill="#E5E3E1"/>
<path d="M285.608 90.1166V126.675H275.328V90.1166H285.608Z" fill="#75726D"/>
<path d="M295.888 90.1166V126.675H286.753V90.1166H295.888Z" fill="#75726D"/>
<path d="M217.68 126.676H205.048V88.3674H217.68V126.676Z" fill="white"/>
<path d="M216.201 90.1166V124.925H206.525V90.1166H216.201Z" fill="#75726D"/>
<path d="M202.091 85.5444V136.23H155.035V92.131H191.207L202.091 85.5444Z" fill="#BAB4A8"/>
<path d="M186.503 136.23H165.539V95.4912H186.503V136.23Z" fill="#54514C"/>
<path d="M169.077 115.231C169.077 115.861 168.669 116.373 168.165 116.373C167.662 116.373 167.253 115.861 167.253 115.231C167.253 114.599 167.662 114.088 168.165 114.088C168.669 114.088 169.077 114.599 169.077 115.231Z" fill="#BAB4A8"/>
<path d="M280.908 44.9502H194.448L191.706 42.1273H278.183L280.908 44.9502Z" fill="#EA7A2F"/>
<path d="M288.874 53.2173H202.478L198.367 48.9829H284.795L288.874 53.2173Z" fill="#EA7A2F"/>
<path d="M298.704 63.4189H212.388L206.293 57.1447H292.656L298.704 63.4189Z" fill="#EA7A2F"/>
<path d="M311.081 76.2671H224.87L219.951 71.2018H306.203L311.081 76.2671Z" fill="#EA7A2F"/>
<path d="M311.078 138.907H150.891V136.23H311.078V138.907Z" fill="#A89F91"/>
<path d="M275.328 107.867L285.608 118.15V122.287L275.328 112.004V107.867Z" fill="#54514C"/>
<path d="M294.131 126.675H289.994L286.753 123.433V119.296L294.131 126.675Z" fill="#54514C"/>
<path d="M295.888 97.5034L288.502 90.1166H295.888V97.5034Z" fill="#54514C"/>
<path d="M279.133 90.1166L285.608 96.5926V106.448L275.328 96.1652V90.1166H279.133Z" fill="#54514C"/>
<path d="M295.888 106.883V116.739L286.753 107.593V97.7379L295.888 106.883Z" fill="#54514C"/>
<path d="M261.376 128.423H237.589V88.3672H261.376V128.423Z" fill="#E5E3E1"/>
<path d="M249.478 90.1166V126.675H239.198V90.1166H249.478Z" fill="#75726D"/>
<path d="M259.759 90.1166V126.675H250.624V90.1166H259.759Z" fill="#75726D"/>
<path d="M239.198 107.867L249.478 118.15V122.287L239.198 112.004V107.867Z" fill="#54514C"/>
<path d="M258.001 126.675H253.865L250.624 123.433V119.296L258.001 126.675Z" fill="#54514C"/>
<path d="M259.759 97.5034L252.373 90.1166H259.759V97.5034Z" fill="#54514C"/>
<path d="M243.004 90.1166L249.478 96.5926V106.448L239.198 96.1652V90.1166H243.004Z" fill="#54514C"/>
<path d="M259.759 106.883V116.739L250.624 107.593V97.7379L259.759 106.883Z" fill="#54514C"/>
<path d="M216.201 103.851V106.795L206.525 97.1246V94.1732L216.201 103.851Z" fill="#BAB4A8"/>
<path d="M216.201 118.174V124.521L206.525 114.851V108.496L216.201 118.174Z" fill="#BAB4A8"/>
<path d="M216.201 92.9231V98.6003L207.727 90.1166H213.395L216.201 92.9231Z" fill="#BAB4A8"/>
<path d="M37.8835 148.432H125.243V28.6464H37.8835V148.432Z" fill="#E5E3E1"/>
<path d="M115.135 46.1377H46.7324C46.267 46.1377 45.8896 45.7604 45.8896 45.2948C45.8896 44.8293 46.267 44.452 46.7324 44.452H115.135C115.6 44.452 115.978 44.8293 115.978 45.2948C115.978 45.7604 115.6 46.1377 115.135 46.1377Z" fill="#BAB4A8"/>
<path d="M115.135 61.2371H46.7324C46.267 61.2371 45.8896 60.8597 45.8896 60.3942C45.8896 59.9287 46.267 59.5514 46.7324 59.5514H115.135C115.6 59.5514 115.978 59.9287 115.978 60.3942C115.978 60.8597 115.6 61.2371 115.135 61.2371Z" fill="#BAB4A8"/>
<path d="M87.3955 93.2974H46.7324C46.267 93.2974 45.8896 92.92 45.8896 92.4538C45.8896 91.989 46.267 91.6109 46.7324 91.6109H87.3955C87.8609 91.6109 88.2382 91.989 88.2382 92.4538C88.2382 92.92 87.8609 93.2974 87.3955 93.2974Z" fill="#BAB4A8"/>
<path d="M87.3955 103.138H46.7324C46.267 103.138 45.8896 102.761 45.8896 102.295C45.8896 101.829 46.267 101.452 46.7324 101.452H87.3955C87.8609 101.452 88.2382 101.829 88.2382 102.295C88.2382 102.761 87.8609 103.138 87.3955 103.138Z" fill="#BAB4A8"/>
<path d="M115.135 73.3828H59.6569C59.1915 73.3828 58.8142 73.0055 58.8142 72.54C58.8142 72.0745 59.1915 71.6971 59.6569 71.6971H115.135C115.6 71.6971 115.978 72.0745 115.978 72.54C115.978 73.0055 115.6 73.3828 115.135 73.3828Z" fill="#BAB4A8"/>
<path d="M115.135 84.325H59.6569C59.1915 84.325 58.8142 83.9476 58.8142 83.4821C58.8142 83.0166 59.1915 82.6385 59.6569 82.6385H115.135C115.6 82.6385 115.978 83.0166 115.978 83.4821C115.978 83.9476 115.6 84.325 115.135 84.325Z" fill="#BAB4A8"/>
<path d="M97.674 36.4441H64.7749C64.3625 36.4441 64.0278 36.1093 64.0278 35.6969V24.5471C64.0278 24.1339 64.3625 23.7999 64.7749 23.7999H97.674C98.0864 23.7999 98.421 24.1339 98.421 24.5471V35.6969C98.421 36.1093 98.0864 36.4441 97.674 36.4441Z" fill="#F98D43"/>
<path d="M106.687 116.761H96.2449C96.2449 116.761 96.9867 115.57 97.8375 111.206C98.6884 106.834 97.0136 100.931 97.0136 100.931L101.466 101.557L105.917 100.931C105.917 100.931 104.243 106.834 105.094 111.206C105.945 115.57 106.687 116.761 106.687 116.761Z" fill="#75726D"/>
<path d="M107.195 98.2619C107.195 100.609 104.63 102.511 101.466 102.511C98.3014 102.511 95.7361 100.609 95.7361 98.2619C95.7361 95.9149 98.3014 94.0133 101.466 94.0133C104.63 94.0133 107.195 95.9149 107.195 98.2619Z" fill="#54514C"/>
<path d="M109.237 95.3126C109.237 98.4165 105.758 100.933 101.466 100.933C97.1735 100.933 93.6938 98.4165 93.6938 95.3126C93.6938 92.2088 97.1735 89.6929 101.466 89.6929C105.758 89.6929 109.237 92.2088 109.237 95.3126Z" fill="#75726D"/>
<path d="M107.511 117.456V117.463C107.511 117.844 107.198 118.157 106.816 118.157H96.2448C95.8631 118.157 95.55 117.844 95.55 117.463V117.456C95.55 117.075 95.8631 116.761 96.2448 116.761H106.816C107.198 116.761 107.511 117.075 107.511 117.456Z" fill="#BAB4A8"/>
<path d="M107.511 118.852V118.859C107.511 119.24 107.198 119.553 106.816 119.553H96.2448C95.8631 119.553 95.55 119.24 95.55 118.859V118.852C95.55 118.471 95.8631 118.158 96.2448 118.158H106.816C107.198 118.158 107.511 118.471 107.511 118.852Z" fill="#54514C"/>
<path d="M109.324 127.56H93.7371C93.4905 127.56 93.2545 127.428 93.1387 127.211C90.6421 122.517 96.2448 119.553 96.2448 119.553H106.816C106.816 119.553 112.419 122.517 109.922 127.211C109.806 127.428 109.57 127.56 109.324 127.56Z" fill="#75726D"/>
<path d="M109.848 128.963H93.2971V127.56H109.848V128.963Z" fill="#54514C"/>
<path d="M116.643 134.635H86.2973C85.885 134.635 85.5503 134.301 85.5503 133.888V129.71C85.5503 129.298 85.885 128.963 86.2973 128.963H116.643C117.055 128.963 117.39 129.298 117.39 129.71V133.888C117.39 134.301 117.055 134.635 116.643 134.635Z" fill="#75726D"/>
<path d="M29.7775 54.2516C29.7775 54.2516 29.0815 60.147 33.0463 61.8357C37.0111 63.5236 40.069 55.4449 40.069 55.4449C40.069 55.4449 41.3305 52.7759 39.0126 50.7741C36.6954 48.7723 31.2876 48.983 29.7775 54.2516Z" fill="#231547"/>
<path d="M33.0434 56.9206C33.0434 56.9206 32.6921 55.5159 31.8494 56.2885C31.0066 57.0611 31.3929 58.0444 32.1654 58.5712C32.9381 59.098 33.0081 59.1682 33.0434 59.695C33.0784 60.2218 33.4394 64.6826 31.1522 66.1927C28.8648 67.7035 31.2213 71.3558 34.3621 70.9344C37.5028 70.513 39.996 68.2654 39.996 68.2654C39.996 68.2654 38.9426 66.8958 38.2052 66.0522C37.4678 65.2093 37.5028 63.5124 37.5028 63.5124C37.5028 63.5124 38.9426 63.4885 39.8204 61.1005C40.6984 58.7117 39.996 54.9891 39.996 54.9891C39.996 54.9891 39.083 55.6563 37.3975 55.2349C35.712 54.8135 34.4129 55.867 34.1669 56.2182C33.9212 56.5694 33.6401 58.0444 33.2891 57.8337C32.9381 57.623 33.0434 56.9206 33.0434 56.9206Z" fill="#E54863"/>
<path d="M34.1978 62.0649C34.1978 62.0649 35.0367 63.841 35.932 64.6771C36.4768 65.186 37.1961 65.2099 37.6968 65.0059C37.4926 64.2572 37.5028 63.5123 37.5028 63.5123C37.5028 63.5123 35.611 63.5773 34.9042 62.8211C34.1978 62.0649 34.1978 62.0649 34.1978 62.0649Z" fill="#AF2845"/>
<path d="M63.4375 79.2529L65.7525 86.7907C65.9012 87.2764 66.4428 87.5207 66.9052 87.3115L76.2491 83.0876C76.6622 82.9008 76.8534 82.4211 76.6823 82.0011L71.1028 68.3333C70.9227 67.8924 70.414 67.6884 69.9792 67.882L60.8289 71.9647C60.3919 72.1597 60.2051 72.679 60.4165 73.1079L63.3875 79.1274L63.4375 79.2529Z" fill="white"/>
<path d="M51.3623 159.559C51.2912 160.313 46.392 160.629 45.8112 160.59C45.2224 160.552 45.0394 159.876 44.7517 159.644C44.4628 159.405 44.1339 159.813 44.0426 160.458C43.9597 161.104 41.4957 160.895 40.6909 160.82C39.8946 160.745 39.9911 159.675 39.8222 158.108C39.6929 156.909 40.0822 156.274 40.3541 155.651C40.4356 155.464 40.5079 155.27 40.5531 155.061C40.7227 154.195 39.0078 147.174 39.1128 141.702C39.2097 136.232 39.8064 127.536 39.8064 127.536C39.9818 124.838 47.1457 125.482 47.1457 125.482C47.1457 125.482 46.5084 128.611 46.5834 129.307C46.6584 130.002 43.9714 153.429 43.9804 154.301L43.9825 154.318C44.0347 154.804 50.5668 157.525 51.2269 158.302C51.8954 159.077 51.4429 158.812 51.3623 159.559Z" fill="#E54863"/>
<path d="M51.3624 159.559C51.2912 160.313 46.392 160.629 45.8113 160.59C45.2224 160.552 45.0394 159.876 44.7518 159.644C44.4628 159.405 44.134 159.813 44.0426 160.458C43.9598 161.104 41.4958 160.895 40.6909 160.82C39.8946 160.745 39.9912 159.675 39.8222 158.108C39.693 156.909 40.0822 156.274 40.3541 155.651C40.7563 155.845 41.1785 155.986 41.6028 155.991C43.3012 156.02 42.5961 154.747 43.143 154.553C43.3145 154.492 43.6268 154.399 43.9804 154.301L43.9825 154.318C44.0348 154.804 50.5669 157.525 51.2269 158.302C51.8954 159.077 51.4429 158.812 51.3624 159.559Z" fill="#231547"/>
<path d="M36.5351 160.248C36.3834 160.99 31.4787 160.779 30.9055 160.677C30.324 160.577 30.2145 159.885 29.9531 159.624C29.6919 159.354 29.321 159.725 29.1608 160.357C29.0094 160.99 26.5821 160.517 25.7898 160.357C25.006 160.197 25.217 159.143 25.217 157.567C25.217 156.361 25.6719 155.771 26.009 155.182C26.1102 155.005 26.2031 154.819 26.2705 154.617C26.5316 153.774 25.5795 146.609 26.2705 141.18C26.953 135.751 28.4783 127.17 28.4783 127.17C28.942 124.507 35.9956 125.914 35.9956 125.914C35.9956 125.914 35.0265 128.957 35.0265 129.657C35.0265 130.357 29.8436 153.361 29.7593 154.229V154.245C29.7593 154.735 35.962 158.14 36.5351 158.983C37.1163 159.826 36.6953 159.514 36.5351 160.248Z" fill="#E54863"/>
<path d="M36.5351 160.248C36.3834 160.99 31.4787 160.779 30.9055 160.677C30.324 160.577 30.2145 159.885 29.9531 159.624C29.6919 159.354 29.321 159.725 29.1608 160.357C29.0094 160.99 26.5821 160.517 25.7898 160.357C25.006 160.197 25.217 159.143 25.217 157.567C25.217 156.361 25.6719 155.771 26.009 155.182C26.3883 155.418 26.7928 155.603 27.2142 155.653C28.8996 155.865 28.335 154.524 28.8996 154.389C29.0767 154.347 29.3969 154.288 29.7593 154.229V154.245C29.7593 154.735 35.962 158.14 36.5351 158.983C37.1163 159.826 36.6953 159.514 36.5351 160.248Z" fill="#231547"/>
<path d="M48.1818 126.85C48.0724 128.216 45.7548 128.637 44.5917 129.059C43.4373 129.48 40.1758 129.277 39.2236 128.57C38.2712 127.862 37.8836 115.993 37.8836 115.993C37.8836 115.993 36.4844 128.114 35.7429 128.325C35.0096 128.536 29.001 128.746 27.6356 128.325C26.2705 127.903 26.7929 127.17 26.5738 125.906C26.3546 124.641 25.0061 111.045 25.2086 109.047C25.4278 107.041 26.4643 99.8758 26.4643 99.8758C26.4643 99.8758 34.0574 99.9766 36.7963 99.8758C39.5268 99.7742 44.2127 99.3109 44.2127 99.3109C44.2127 99.3109 47.7943 122.323 48.1568 126.319C48.1818 126.58 48.1903 126.765 48.1818 126.85Z" fill="#41277A"/>
<path d="M48.1817 126.85C48.0723 128.216 45.7548 128.637 44.5916 129.059C43.4373 129.48 40.1757 129.277 39.2236 128.57C38.2711 127.862 37.8835 115.993 37.8835 115.993L38.6924 108.937H41.5916L39.7374 109.991C39.7374 109.991 40.1672 124.001 41.5916 125.796C42.4427 126.867 45.6874 126.656 48.1567 126.319C48.1817 126.58 48.1902 126.765 48.1817 126.85Z" fill="#231547"/>
<path d="M45.9655 76.1678C46.0518 76.2985 48.599 82.6303 49.1958 82.6655C49.7928 82.7006 55.3412 80.9095 57.2021 80.5232C59.0629 80.1369 61.065 80.0316 61.4161 79.575C61.7672 79.1185 61.9076 78.31 62.7503 77.8184C63.5929 77.3267 64.8569 76.835 64.892 77.3267C64.9271 77.8183 63.4174 79.1887 63.4174 79.1887L64.2951 82.525C64.2951 82.525 62.1534 82.3494 61.9778 82.4547C61.8023 82.5601 55.903 85.194 52.9881 86.459C50.0739 87.7233 48.4234 88.6715 46.8433 88.1447C45.2631 87.6179 43.7532 85.729 42.6648 83.3372C41.5761 80.9446 41.014 77.8886 42.4539 76.6946C43.8936 75.5005 44.7363 74.3065 45.9655 76.1678Z" fill="#E54863"/>
<path d="M43.926 78.5236C43.926 78.5236 43.926 96.925 44.2126 99.3108C44.4903 101.705 39.0803 101.073 36.6276 101.073C34.1667 101.073 27.2142 99.9429 26.4642 99.8757C26.0598 99.8421 26.2786 97.507 26.5821 95.2311C26.8348 93.2502 27.1467 91.3112 27.1467 90.9571V90.5102C27.1467 88.2178 27.1467 78.5908 27.1467 78.5908C27.1467 78.5908 25.8826 79.3664 25.3854 79.3664C25.3434 79.3664 25.2759 79.3582 25.2001 79.3328C24.4163 79.1057 22.0482 77.8242 21.5256 76.7617L21.4582 76.6272C21.0368 75.4302 25.0399 68.5432 25.8826 67.6331C26.5821 66.8657 30.0374 65.913 31.1497 65.6179C31.3689 65.5589 31.4952 65.5252 31.4952 65.5252L36.4846 67.4896L39.0803 66.2254C39.0803 66.2254 43.2939 67.7758 43.8586 68.4759C44.4232 69.1753 47.297 76.1296 47.297 76.9051C47.297 77.6807 43.926 78.5236 43.926 78.5236Z" fill="#99B746"/>
<path d="M33.0433 68.6515C33.0433 68.6515 33.9604 69.6348 34.3619 69.389C34.7638 69.1432 35.7469 67.8438 35.8875 67.7736C36.0279 67.7033 36.5196 67.7736 36.5196 67.7736C36.5196 67.7736 37.1516 67.4575 37.292 67.4575C37.4327 67.4575 37.7484 68.6911 38.0647 68.4431C38.3804 68.195 39.4692 66.333 39.3289 66.0169C39.1882 65.7008 38.3455 64.858 38.0998 65.1038C37.8538 65.3496 36.5196 67.2438 36.5196 67.2438C36.5196 67.2438 31.8142 64.9805 31.6385 65.0597C31.4632 65.1389 31.1521 65.6149 31.1521 65.6149C31.1521 65.6149 32.3053 68.0321 33.0433 68.6515Z" fill="white"/>
<path d="M27.1438 84.5447V78.5932C27.1459 78.5917 27.1467 78.591 27.1467 78.591C27.1467 78.591 27.1467 81.526 27.1467 84.5409C27.1459 84.5424 27.145 84.5432 27.1438 84.5447Z" fill="#7F9D8B"/>
<path d="M27.1467 84.541C27.1467 81.526 27.1467 78.591 27.1467 78.591C27.1467 78.591 27.1459 78.5918 27.1438 78.5933V78.591C27.1438 78.591 28.689 76.5542 29.2157 74.6226C29.2157 74.6226 29.7071 81.1151 27.1467 84.541Z" fill="#5A8349"/>
<path d="M43.9288 78.5208L43.2793 73.3232L45.4413 78.0642L43.9288 78.5208Z" fill="#5A8349"/>
<path d="M84.0743 117.931L72.5962 117.19L5.78356 84.96L3.14558 83.6868L2.37023 83.308C0.962907 82.625 0.145508 81.2337 0.145508 79.7842C0.145508 79.2029 0.271905 78.6125 0.549949 78.0559C1.51907 76.1087 3.90403 75.3084 5.8679 76.2775L6.79466 76.7326L9.19651 77.9214L75.1495 110.446L84.0743 117.931Z" fill="#231547"/>
<path d="M9.19644 77.9213L5.78349 84.96L3.14551 83.6867L6.79459 76.7325L9.19644 77.9213Z" fill="#FFAF5F"/>
<path d="M3.14548 83.6868C3.14548 83.6868 0.482476 83.4619 2.16792 85.2888C3.85344 87.115 5.88618 88.6049 14.5768 91.9763C23.2677 95.3484 25.3877 95.0159 24.0381 93.6015C22.6885 92.187 3.14548 83.6868 3.14548 83.6868Z" fill="#FFAF5F"/>
<path d="M84.0742 117.931L72.5961 117.19C72.5961 117.19 71.2559 112.798 75.1494 110.446L84.0742 117.931Z" fill="#75726D"/>
<path d="M35.0604 99.1929C35.2203 99.6651 31.3774 98.6115 30.425 98.291C29.4812 97.9794 29.692 97.1358 27.1468 95.61C26.97 95.5009 26.776 95.3747 26.5822 95.2312C24.0204 93.334 20.3459 88.6394 20.0174 88.395C19.6631 88.1253 19.1069 87.1808 18.7364 86.6496C18.3655 86.1273 17.9946 85.8067 18.1043 84.5424C18.1801 83.5397 20.5397 78.7344 21.5257 76.7618C22.0483 77.8243 24.4164 79.1058 25.2002 79.3329C24.7114 80.5472 23.346 83.9858 23.2112 84.5424C23.051 85.2254 23.5821 85.7058 24.9472 87.3325C25.4698 87.9564 26.2787 89.1871 27.1468 90.5104C28.5457 92.6429 30.1133 95.0459 30.9561 95.6608C32.3214 96.6643 32.0095 96.6053 32.3719 97.3465C32.7428 98.0885 34.9002 98.7124 35.0604 99.1929Z" fill="#E54863"/>
<path d="M147.916 155.538C147.916 155.538 148.197 157.31 148.584 158.013C148.971 158.716 148.994 161.096 148.915 161.368C148.836 161.641 145.538 163.079 144.947 162.449C144.355 161.819 144.261 161.405 143.92 161.703C143.579 162.001 143.396 162.833 142.661 162.896C141.927 162.959 137.021 163.655 136.675 162.843C136.33 162.03 136.132 161.096 136.825 160.604C137.517 160.112 141.686 159.642 142.491 158.403C143.296 157.165 143.063 156.7 143.231 156.654C143.399 156.609 147.248 153.062 147.916 155.538Z" fill="#231547"/>
<path d="M130.375 156.089C130.375 156.089 130.48 157.881 130.796 158.619C131.112 159.356 130.902 161.727 130.796 161.99C130.691 162.254 127.268 163.36 126.741 162.675C126.214 161.99 126.161 161.569 125.793 161.832C125.424 162.095 125.161 162.905 124.424 162.896C123.685 162.886 118.735 163.096 118.471 162.254C118.208 161.411 118.103 160.462 118.84 160.041C119.578 159.619 123.772 159.561 124.695 158.408C125.618 157.254 125.431 156.769 125.602 156.74C125.775 156.711 129.954 153.561 130.375 156.089Z" fill="#231547"/>
<path d="M145.646 156.875C144.491 157.517 142.696 156.775 142.073 156.252C141.432 155.721 134.909 131.065 134.379 129.901C133.847 128.746 133.115 120.528 133.115 120.528C133.115 120.528 131.85 125.375 131.741 126.007C131.639 126.639 131.117 155.83 130.897 156.775C130.696 157.718 128.791 157.828 127.948 157.828C127.173 157.828 125.596 157.289 124.695 156.884C124.619 156.842 124.543 156.808 124.476 156.775C123.633 156.353 123.212 122.846 123.212 122.534C123.212 122.213 125.74 96.8242 125.74 96.8242C125.74 96.8242 142.073 91.868 143.252 97.6162C144.441 103.357 142.384 125.796 142.57 126.529C142.747 127.271 148.174 152.349 148.394 154.667C148.595 156.985 146.809 156.252 145.646 156.875Z" fill="#41277A"/>
<path d="M128.901 57.992C128.901 57.992 126.004 56.8324 126.952 54.3039C127.9 51.7753 129.849 53.6187 129.849 53.6187C129.849 53.6187 135.716 52.0383 137.707 53.5133C139.698 54.989 138.802 57.2015 138.802 57.2015C138.802 57.2015 140.435 59.0456 139.646 61.7848C138.855 64.5248 135.326 65.157 135.326 65.157L128.901 57.992Z" fill="#231547"/>
<path d="M128.901 57.992C128.901 57.992 128.283 62.4169 129.276 64.5248C130.27 66.6319 131.271 66.5796 131.271 66.5796C131.271 66.5796 130.817 70.211 129.99 70.6601C129.163 71.1099 130.691 74.482 132.903 75.2718C135.116 76.0623 137.381 75.1941 138.065 73.2312C138.75 71.2683 138.381 70.6601 138.381 70.6601C138.381 70.6601 136.836 70.3373 136.538 69.2135C136.239 68.0897 135.853 64.7355 135.853 64.7355C135.853 64.7355 137.876 62.9437 137.707 61.6271C137.538 60.3098 136.959 60.8896 136.696 61.2057C136.433 61.5218 136.011 62.1539 135.695 61.8901C135.379 61.6271 135.537 61.258 135.537 60.4682C135.537 59.6777 135.168 58.7818 134.484 58.308C133.799 57.8336 129.795 58.8348 128.901 57.992Z" fill="#FFB2A8"/>
<path d="M144.82 79.1893C144.171 84.357 142.974 90.9317 143.016 92.0786C143.084 93.9078 143.792 97.2037 143.016 98.122C142.41 98.8303 135.558 100.179 131.218 100.213C129.987 100.221 128.959 100.12 128.336 99.8757C125.529 98.7541 125.108 98.6787 125.108 97.5571C125.108 97.2283 125.167 96.0993 125.243 94.6744C125.352 92.6009 125.513 89.9035 125.631 88.1252V88.1162C125.655 87.6694 125.681 87.2823 125.698 86.9782C125.732 86.5149 125.74 86.2452 125.74 86.2452L123.7 89.6928L118.222 86.2452C118.222 86.2452 118.72 85.0736 119.453 83.3789C121.299 79.0803 124.67 71.4005 125.318 70.7938C126.229 69.9509 130.442 68.476 130.442 68.476L133.257 72.2688L136.274 68.476C136.274 68.476 144.02 71.1898 145.03 72.8845C145.402 73.5166 145.207 76.1041 144.82 79.1893Z" fill="#FC4254"/>
<path d="M131.218 100.213L131.428 97.3464L125.243 94.6744C125.352 92.6009 125.513 89.9035 125.631 88.1251V88.1162L130.232 86.8101L135.078 88.2933C135.078 88.2933 139.502 85.8237 140.16 84.9809C140.817 84.1381 140.615 79.2909 140.615 79.2909C140.626 78.3502 141.039 77.9542 141.727 77.9542C142.481 77.9542 143.568 78.4309 144.82 79.1893C144.813 79.2439 144.806 79.2984 144.799 79.353C144.327 83.0636 143.586 87.4541 143.226 90.038C143.222 90.0634 143.219 90.0888 143.216 90.1142C143.169 90.4549 143.128 90.7628 143.096 91.0318C143.045 91.4696 143.015 91.8051 143.015 92.0128C143.015 92.036 143.015 92.0584 143.016 92.0786C143.06 93.2719 143.377 95.0891 143.376 96.4632C143.376 97.1962 143.286 97.8029 143.016 98.122C142.41 98.8303 135.558 100.179 131.218 100.213Z" fill="#CA2043"/>
<path d="M123.7 89.6929L118.222 86.2453C118.222 86.2453 118.72 85.0737 119.453 83.379C120.966 83.6323 123.448 84.0179 124.421 84.0179C124.678 84.0179 124.83 83.9902 124.83 83.9267C124.83 83.5053 125.175 77.6046 125.175 77.6046L125.74 86.2453L123.7 89.6929Z" fill="#CA2043"/>
<path d="M93.3278 75.8719L98.7923 81.6261C98.8715 81.7091 98.9671 81.7756 99.0732 81.8204L132.5 96.0621C132.822 96.1981 133.024 96.5127 133.013 96.8616C132.96 98.3919 133.031 102.653 135.221 105.109C137.478 107.639 143.891 109.3 145.952 109.78C146.332 109.868 146.718 109.685 146.893 109.337L155.107 93.0023C155.301 92.6153 155.175 92.1475 154.81 91.9144C152.755 90.6031 146.244 86.5771 143.016 86.1079C139.98 85.6655 137.594 88.3502 136.713 89.5181C136.483 89.823 136.074 89.9283 135.722 89.7819L131.47 88.0095C131.35 87.9594 131.222 87.9385 131.092 87.946L126.142 88.2568C125.812 88.2777 125.5 88.1037 125.345 87.8115L124.061 85.392C123.926 85.138 123.67 84.9699 123.383 84.9475L118.871 84.591C118.639 84.5724 118.424 84.4588 118.279 84.2757L115.196 80.406C115.026 80.193 114.763 80.075 114.491 80.0899L110.198 80.3223C109.906 80.338 109.626 80.2012 109.46 79.9606L107.602 77.2827C107.438 77.0473 107.167 76.9113 106.881 76.921L103.53 77.0346C103.316 77.0421 103.107 76.9673 102.946 76.8261L99.496 73.7984C99.3047 73.6311 99.0478 73.5586 98.7975 73.6019L93.7961 74.4605C93.132 74.5748 92.8638 75.3833 93.3278 75.8719Z" fill="#FFAF5F"/>
<path d="M143.508 105.601C143.508 105.601 143.157 108.586 143.157 109.007C143.157 109.429 142.7 109.85 142.174 109.92C141.647 109.991 137.89 108.902 137.749 107.761C137.609 106.619 138.241 106.689 138.732 106.338C139.224 105.987 140.618 105.109 140.618 105.109L143.508 105.601Z" fill="#ED827A"/>
<path d="M141.015 102.404C141.015 102.404 139.837 104.828 140.163 105.25C140.488 105.671 143.719 107.146 144.07 106.619C144.421 106.092 145.123 104.512 145.018 104.055C144.912 103.598 141.542 101.842 141.015 102.404Z" fill="white"/>
<path d="M143.754 71.6972C143.754 71.6972 137.679 72.4795 141.331 80.2071C144.982 87.9339 145.474 89.2684 145.334 89.9708C145.193 90.6731 139.927 102.264 140.488 102.966C141.05 103.669 145.024 105.425 145.354 104.723C145.685 104.02 150.671 92.6405 151.303 90.4624C151.935 88.2851 145.966 71.9677 143.754 71.6972Z" fill="#FC4254"/>
<path d="M122.846 91.9487C122.846 91.9487 120.21 95.2394 118.787 94.5019C117.365 93.7644 101.774 85.7566 101.721 84.8077C101.669 83.8595 102.242 83.1705 102.242 83.1705L122.846 91.9487Z" fill="#FC4254"/>
<path d="M101.718 84.4392C101.718 84.4392 100.984 84.4915 100.721 83.9648C100.457 83.438 100.721 82.5227 100.721 82.5227L102.242 83.1705L101.718 84.4392Z" fill="white"/>
<path d="M100.604 83.4814C100.604 83.4814 97.2445 82.1208 96.8231 80.9096C96.4018 79.6976 97.3498 78.644 98.1924 78.8017C99.0358 78.9601 99.8785 79.7507 100.089 80.3297C100.3 80.9096 100.721 82.5228 100.721 82.5228L100.604 83.4814Z" fill="#ED827A"/>
<path d="M129.276 68.905C129.276 68.905 129.989 70.1618 130.305 71.0749C130.621 71.988 130.726 73.1125 131.042 72.9018C131.358 72.6903 133.257 72.2689 133.257 72.2689C133.257 72.2689 134.273 73.569 134.659 73.1476C135.046 72.7255 137.863 69.3892 137.701 69.0029C137.539 68.6166 136.415 68.0898 136.239 68.0898C136.064 68.0898 133.15 71.6973 133.15 71.6973C133.15 71.6973 131.113 68.5815 130.761 68.3005C130.41 68.0196 129.301 68.5262 129.276 68.905Z" fill="white"/>
<path d="M131.271 66.5797C131.271 66.5797 133.377 66.316 134.009 65.4201C134.009 65.4201 133.693 67.7551 131.018 68.0898L131.271 66.5797Z" fill="#ED827A"/>
<path d="M133.114 120.528C133.114 120.528 131.85 125.375 131.741 126.007C131.639 126.639 131.117 155.83 130.897 156.775C130.696 157.718 128.791 157.828 127.948 157.828C127.173 157.828 125.597 157.289 124.695 156.884C126.6 156.597 128.588 156.218 128.588 155.83C128.588 155.089 129.853 126.749 130.055 125.485C130.274 124.22 131.724 120.207 131.724 120.207V108.937L133.114 120.528Z" fill="#231547"/>
<path d="M235.155 163.612C235.155 163.612 228.704 158.673 229.007 156.454C229.309 154.236 233.643 156.958 233.643 156.958C233.643 156.958 230.408 151.918 232.076 150.204C233.744 148.49 236.666 154.136 236.666 154.136C236.666 154.136 237.07 150.103 239.287 151.313C241.505 152.522 243.218 161.193 243.218 161.193L245.25 160.866C245.25 160.866 246.834 151.588 249.051 151.184C251.269 150.781 250.072 154.842 250.072 154.842C250.072 154.842 255.212 148.951 257.127 149.88C259.042 150.809 252.893 158.974 252.893 158.974C252.893 158.974 255.313 156.858 256.22 158.37C257.127 159.882 251.885 163.612 251.885 163.612H235.155Z" fill="#99B746"/>
<path d="M246.644 125.4V163.612H240.194V125.4H246.644Z" fill="#75726D"/>
<path d="M246.644 125.4V132.304L240.194 131.852V125.4H246.644Z" fill="#54514C"/>
<path d="M222.052 106.805V126.667C222.052 127.536 222.742 128.25 223.611 128.278L262.717 129.582C263.628 129.613 264.383 128.882 264.383 127.971V105.595C264.383 104.684 263.631 103.954 262.721 103.982L223.615 105.194C222.744 105.22 222.052 105.934 222.052 106.805Z" fill="#F98D43"/>
<path d="M261.364 106.819H261.356L225.064 107.943C224.941 107.946 224.844 108.046 224.844 108.17V125.306C224.844 125.429 224.94 125.529 225.063 125.532L261.356 126.742L261.521 126.68L261.591 126.516V107.046L261.522 106.882L261.364 106.819ZM261.366 127.49L261.331 127.489L225.039 126.279C224.511 126.263 224.097 125.835 224.097 125.306V108.17C224.097 107.64 224.511 107.213 225.041 107.195L261.334 106.072C261.601 106.074 261.851 106.162 262.042 106.347C262.233 106.532 262.338 106.781 262.338 107.046V126.516C262.338 126.782 262.232 127.031 262.041 127.216C261.857 127.394 261.619 127.49 261.366 127.49Z" fill="white"/>
<path d="M233.021 116.147C232.753 115.878 232.46 115.664 232.144 115.506C231.828 115.347 231.508 115.215 231.189 115.111C230.869 115.007 230.576 114.905 230.313 114.807C230.049 114.709 229.833 114.581 229.668 114.424C229.503 114.268 229.419 114.05 229.419 113.77C229.419 113.583 229.461 113.407 229.543 113.242C229.626 113.077 229.763 112.939 229.95 112.831C230.138 112.723 230.387 112.666 230.697 112.66C231.043 112.654 231.403 112.724 231.772 112.872C232.14 113.019 232.514 113.257 232.89 113.585C233.162 112.54 233.298 112.015 233.569 110.963C233.185 110.603 232.742 110.34 232.241 110.171C231.739 110.002 231.229 109.926 230.709 109.941C229.932 109.966 229.283 110.168 228.763 110.544C228.243 110.919 227.855 111.406 227.6 112.002C227.343 112.598 227.215 113.253 227.215 113.969C227.215 114.617 227.295 115.153 227.458 115.581C227.62 116.009 227.832 116.357 228.096 116.625C228.359 116.892 228.655 117.109 228.979 117.274C229.302 117.439 229.621 117.574 229.934 117.676C230.245 117.777 230.536 117.886 230.804 118C231.072 118.115 231.29 118.252 231.455 118.413C231.62 118.574 231.703 118.793 231.703 119.064C231.703 119.276 231.66 119.46 231.574 119.612C231.487 119.763 231.35 119.879 231.166 119.958C230.982 120.037 230.73 120.074 230.414 120.067C229.955 120.058 229.493 119.934 229.029 119.698C228.565 119.462 228.157 119.168 227.803 118.816C227.508 119.834 227.361 120.342 227.068 121.353C227.437 121.743 227.921 122.074 228.521 122.343C229.12 122.612 229.747 122.759 230.403 122.78C231.187 122.807 231.84 122.646 232.36 122.294C232.879 121.942 233.269 121.462 233.529 120.853C233.789 120.246 233.92 119.575 233.92 118.845C233.92 118.188 233.836 117.64 233.671 117.203C233.505 116.767 233.287 116.414 233.021 116.147Z" fill="white"/>
<path d="M238.242 117.638C238.564 116.347 238.88 115.066 239.256 113.54C239.633 115.054 239.95 116.339 240.273 117.653C239.532 117.648 238.942 117.643 238.242 117.638ZM238.17 110.009C236.772 115.16 236.074 117.694 234.676 122.671C235.59 122.701 236.046 122.715 236.96 122.745C237.188 121.84 237.391 121.031 237.582 120.272C238.78 120.296 239.672 120.314 240.93 120.339C241.121 121.119 241.324 121.955 241.551 122.892C242.482 122.922 242.949 122.937 243.88 122.967C242.478 117.671 241.777 115.066 240.375 109.944C239.493 109.97 239.052 109.983 238.17 110.009Z" fill="white"/>
<path d="M247.316 109.772C246.421 109.799 245.973 109.812 245.077 109.838C245.077 115.105 245.077 117.739 245.077 123.005C247.479 123.082 248.68 123.121 251.082 123.198C251.082 121.984 251.082 121.377 251.082 120.162C249.576 120.135 248.823 120.121 247.316 120.094C247.316 115.965 247.316 113.9 247.316 109.772Z" fill="white"/>
<path d="M254.927 120.301C254.927 119.344 254.927 118.543 254.927 117.791C256.289 117.8 257.029 117.806 258.443 117.816C258.443 116.645 258.443 116.058 258.443 114.886C257.029 114.895 256.289 114.899 254.927 114.907C254.927 114.216 254.927 113.478 254.927 112.613C256.524 112.587 257.321 112.575 258.918 112.548C258.918 111.319 258.918 110.704 258.918 109.473C256.439 109.547 255.2 109.583 252.721 109.657C252.721 115.094 252.721 117.814 252.721 123.251C255.259 123.332 256.527 123.373 259.065 123.455C259.065 122.224 259.065 121.609 259.065 120.378C257.41 120.348 256.582 120.332 254.927 120.301Z" fill="white"/>
<path d="M228.996 164.316H260.487C260.487 164.316 242.599 151.933 228.996 164.316Z" fill="#E5E3E1"/>
<path d="M230.632 26.6594H267.201C270.828 16.7418 260.686 18.6225 257.463 21.1757C257.194 8.41121 246.649 12.1061 240.202 19.9667C236.777 17.1445 232.815 21.4611 230.632 26.6594Z" fill="#F2F1F0"/>
<path d="M130.22 34.9407H177.902C183.247 27.6562 172.214 27.4754 167.253 30.122C169.319 22.1605 159.575 18.0703 151.35 25.4833C149.897 21.2654 140.906 24.0248 140.105 30.122C137.389 27.0166 130.22 34.9407 130.22 34.9407Z" fill="#F2F1F0"/>
<path d="M189.016 8.39038H213.878C219.415 -0.214416 205.7 -3.28244 199.481 5.32311C199.481 2.00029 191.499 4.21575 189.016 8.39038Z" fill="#F2F1F0"/>
<path d="M182.353 149.781H197.004C194.789 144.3 186.952 143.589 182.353 149.781Z" fill="#E5E3E1"/>
<path d="M289.514 158.813H303.399C305.699 153.417 293.091 152.451 289.514 158.813Z" fill="#E5E3E1"/>
<path d="M267.196 150.264H273.719C271.881 147.027 268.388 146.856 267.196 150.264Z" fill="#E5E3E1"/>
</g>
<defs>
<clipPath id="clip0_921_20926">
<rect width="330" height="167" fill="white" transform="translate(0 0.200195)"/>
</clipPath>
</defs>
</svg>
