<svg width="150" height="150" viewBox="0 0 150 150" fill="none" xmlns="http://www.w3.org/2000/svg">
<path d="M44.4601 73.6758H27.2378C26.3505 73.6758 25.6306 74.3957 25.6306 75.2829V92.8046C25.6306 93.6918 26.3505 94.4117 27.2378 94.4117C28.125 94.4117 28.8449 93.6918 28.8449 92.8046V76.8901H44.4601C45.3474 76.8901 46.0673 76.1702 46.0673 75.2829C46.0673 74.3957 45.3474 73.6758 44.4601 73.6758Z" fill="#EB6753"/>
<path d="M27.2378 97.9462C26.3505 97.9462 25.6306 98.666 25.6306 99.5533V101.732C25.6306 102.619 26.3505 103.339 27.2378 103.339C28.125 103.339 28.8449 102.619 28.8449 101.732V99.5533C28.8449 98.666 28.125 97.9462 27.2378 97.9462Z" fill="#EB6753"/>
<path d="M100.677 21.5587C100.091 22.2263 100.158 23.2433 100.823 23.8271L124.359 44.4772C125.025 45.0612 126.04 44.9992 126.627 44.3307C127.213 43.6632 127.146 42.6462 126.481 42.0623L102.945 21.4122C102.278 20.8263 101.265 20.8891 100.677 21.5587Z" fill="#EB6753"/>
<path d="M94.5997 16.2309C94.0158 16.8984 94.0828 17.9134 94.7504 18.4993L95.7318 19.3594C96.4099 19.9492 97.4197 19.8695 98.0002 19.2087C98.5841 18.5412 98.5171 17.5262 97.8495 16.9403L96.8681 16.0802C96.2006 15.4985 95.1856 15.5612 94.5997 16.2309Z" fill="#EB6753"/>
<path d="M71.0492 29.8982C63.9778 29.8982 58.2349 35.6625 58.2349 42.7339C58.2349 49.784 63.9778 55.5268 71.0492 55.5268C78.0991 55.5268 83.842 49.784 83.842 42.7339C83.842 35.6625 78.0991 29.8982 71.0492 29.8982ZM71.0492 52.3125C65.7564 52.3125 61.4492 48.0054 61.4492 42.7339C61.4492 37.4196 65.7564 33.1125 71.0492 33.1125C76.3206 33.1125 80.6277 37.4196 80.6277 42.7339C80.6277 48.0054 76.3206 52.3125 71.0492 52.3125Z" fill="#181A20"/>
<path d="M52.1063 114.027C52.1063 114.927 51.3778 115.634 50.4991 115.634H48.2491C47.3492 115.634 46.642 114.927 46.642 114.027C46.642 113.148 47.3492 112.42 48.2491 112.42H50.4991C51.3778 112.42 52.1063 113.148 52.1063 114.027Z" fill="#181A20"/>
<path d="M113.653 96.8768H98.0253C97.138 96.8768 96.4182 97.5967 96.4182 98.484C96.4182 99.3712 97.138 100.091 98.0253 100.091H113.653C114.54 100.091 115.26 99.3712 115.26 98.484C115.26 97.5967 114.54 96.8768 113.653 96.8768Z" fill="#EB6753"/>
<path d="M92.4903 96.8768H92.1701C91.2829 96.8768 90.563 97.5967 90.563 98.484C90.563 99.3712 91.2829 100.091 92.1701 100.091H92.4903C93.3776 100.091 94.0974 99.3712 94.0974 98.484C94.0974 97.5967 93.3776 96.8768 92.4903 96.8768Z" fill="#EB6753"/>
<path d="M139.321 105.412H124.985V68.341H130.063C134.735 68.341 136.899 62.5553 133.406 59.491L74.3491 7.67674C72.4421 6.00538 69.592 6.00538 67.6849 7.67674L42.7849 29.5554V22.8911H45.142C46.5778 22.8911 47.7349 21.7339 47.7349 20.3196V12.5411C47.7349 11.1267 46.5778 9.96962 45.142 9.96962H19.1705C17.7349 9.96962 16.5778 11.1267 16.5778 12.5411V20.3196C16.5778 21.7339 17.7349 22.8911 19.1705 22.8911H21.5492V48.1982L8.67062 59.491C5.17774 62.5767 7.3635 68.341 12.0135 68.341H17.0921V140.363H11.4563C10.5778 140.363 9.8492 141.07 9.8492 141.97C9.8492 142.848 10.5778 143.577 11.4563 143.577H11.5849H139.321C141.378 143.577 143.049 141.884 143.049 139.827V109.141C143.049 107.084 141.378 105.412 139.321 105.412ZM19.7921 19.6768V13.1839H44.5206V19.6768H19.7921ZM39.5706 22.8911V32.3625L24.7635 45.3696V22.8911H39.5706ZM12.0135 65.1267C10.3205 65.1267 9.5277 63.0268 10.792 61.9124L69.8063 10.0982C70.492 9.49823 71.542 9.49823 72.2277 10.0982L131.285 61.9124C132.549 63.0268 131.778 65.1267 130.063 65.1267H12.0135ZM38.0491 90.2625V140.363H20.3063V68.341H121.771V105.412H78.2706V90.2625C78.2706 87.091 75.6777 84.4982 72.5063 84.4982H43.8349C40.642 84.4982 38.0491 87.091 38.0491 90.2625ZM75.0563 105.455C73.2564 105.712 71.842 107.32 71.842 109.141C71.8635 121.891 71.7991 139.72 71.8849 140.363H41.2634V90.2625C41.2634 88.8696 42.4206 87.7125 43.8348 87.7125H72.5063C73.8992 87.7125 75.0563 88.8696 75.0563 90.2625V105.455H75.0563ZM139.835 139.827C139.835 140.127 139.599 140.363 139.321 140.363H75.5705C75.4205 140.363 75.0777 140.127 75.0777 139.848V109.141C75.0777 108.863 75.3563 108.627 75.5705 108.627C76.8135 108.648 122.113 108.627 139.321 108.627C139.599 108.627 139.835 108.863 139.835 109.141V139.827Z" fill="#181A20"/>
<path d="M72.5063 87.7125H43.8349C42.4207 87.7125 41.2634 88.8696 41.2634 90.2625V140.363H71.8849C71.7991 139.72 71.8635 121.891 71.842 109.141C71.842 107.32 73.2564 105.712 75.0563 105.455V90.2625C75.0563 88.8696 73.8992 87.7125 72.5063 87.7125ZM50.4991 115.634H48.2491C47.3492 115.634 46.642 114.927 46.642 114.027C46.642 113.148 47.3492 112.42 48.2491 112.42H50.4991C51.3778 112.42 52.1063 113.148 52.1063 114.027C52.1063 114.927 51.3778 115.634 50.4991 115.634Z" fill="url(#paint0_linear_856_20930)"/>
<path d="M19.7914 13.1829H44.52V19.6757H19.7914V13.1829Z" fill="url(#paint1_linear_856_20930)"/>
<path d="M39.5706 22.8911V32.3625L24.7635 45.3697V22.8911H39.5706Z" fill="url(#paint2_linear_856_20930)"/>
<path d="M80.6277 42.7338C80.6277 48.0053 76.3206 52.3125 71.0491 52.3125C65.7563 52.3125 61.4492 48.0053 61.4492 42.7338C61.4492 37.4196 65.7563 33.1124 71.0491 33.1124C76.3206 33.1124 80.6277 37.4196 80.6277 42.7338Z" fill="#DDDDDD"/>
<path d="M88.342 118.805C85.2134 118.805 82.6634 121.355 82.6634 124.484C82.6634 127.634 85.2134 130.184 88.342 130.184C91.492 130.184 94.0205 127.634 94.0205 124.484C94.0205 121.355 91.492 118.805 88.342 118.805ZM88.342 126.97C86.992 126.97 85.8777 125.855 85.8777 124.484C85.8777 123.134 86.992 122.02 88.342 122.02C89.7135 122.02 90.8062 123.134 90.8062 124.484C90.8062 125.855 89.7135 126.97 88.342 126.97Z" fill="#181A20"/>
<path d="M90.8062 124.484C90.8062 125.855 89.7135 126.97 88.342 126.97C86.992 126.97 85.8777 125.855 85.8777 124.484C85.8777 123.134 86.992 122.02 88.342 122.02C89.7135 122.02 90.8062 123.134 90.8062 124.484Z" fill="#DDDDDD"/>
<path d="M126.549 118.805C123.421 118.805 120.871 121.355 120.871 124.484C120.871 127.634 123.421 130.184 126.549 130.184C129.678 130.184 132.228 127.634 132.228 124.484C132.228 121.355 129.678 118.805 126.549 118.805ZM126.549 126.97C125.178 126.97 124.085 125.855 124.085 124.484C124.085 123.134 125.178 122.02 126.549 122.02C127.921 122.02 129.013 123.134 129.013 124.484C129.013 125.855 127.921 126.97 126.549 126.97Z" fill="#181A20"/>
<path d="M129.013 124.484C129.013 125.855 127.921 126.97 126.549 126.97C125.178 126.97 124.085 125.855 124.085 124.484C124.085 123.134 125.178 122.02 126.549 122.02C127.921 122.02 129.013 123.134 129.013 124.484Z" fill="#DDDDDD"/>
<path d="M107.448 117.041C109.06 117.041 110.372 118.351 110.372 119.963C110.372 120.85 111.092 121.57 111.979 121.57C112.866 121.57 113.586 120.85 113.586 119.963C113.586 117.139 111.657 114.779 109.056 114.068V112.875C109.056 111.988 108.336 111.268 107.448 111.268C106.561 111.268 105.841 111.988 105.841 112.875V114.068C103.24 114.779 101.311 117.139 101.311 119.963C101.311 123.347 104.065 126.1 107.448 126.1C109.06 126.1 110.372 127.412 110.372 129.024C110.372 130.635 109.06 131.945 107.448 131.945C105.837 131.945 104.525 130.635 104.525 129.024C104.525 128.137 103.805 127.417 102.918 127.417C102.031 127.417 101.311 128.137 101.311 129.024C101.311 131.848 103.24 134.208 105.841 134.919V136.112C105.841 136.999 106.561 137.719 107.448 137.719C108.336 137.719 109.056 136.999 109.056 136.112V134.919C111.657 134.208 113.586 131.848 113.586 129.024C113.586 125.64 110.832 122.886 107.448 122.886C105.837 122.886 104.525 121.574 104.525 119.963C104.525 118.351 105.837 117.041 107.448 117.041Z" fill="#181A20"/>
<defs>
<linearGradient id="paint0_linear_856_20930" x1="58.1599" y1="87.7125" x2="58.1599" y2="140.363" gradientUnits="userSpaceOnUse">
<stop stop-color="#DDDDDD" stop-opacity="0"/>
<stop offset="1" stop-color="#DDDDDD"/>
</linearGradient>
<linearGradient id="paint1_linear_856_20930" x1="32.1557" y1="13.1829" x2="32.1557" y2="19.6757" gradientUnits="userSpaceOnUse">
<stop stop-color="#DDDDDD" stop-opacity="0"/>
<stop offset="1" stop-color="#DDDDDD"/>
</linearGradient>
<linearGradient id="paint2_linear_856_20930" x1="32.167" y1="22.8911" x2="32.167" y2="45.3697" gradientUnits="userSpaceOnUse">
<stop stop-color="#DDDDDD" stop-opacity="0"/>
<stop offset="1" stop-color="#DDDDDD"/>
</linearGradient>
</defs>
</svg>
