<svg width="150" height="150" viewBox="0 0 150 150" fill="none" xmlns="http://www.w3.org/2000/svg">
<path d="M57.4056 73.498H34.5352C33.648 73.498 32.9281 74.2179 32.9281 75.1052V100.424C32.9281 101.311 33.648 102.031 34.5352 102.031C35.4225 102.031 36.1424 101.311 36.1424 100.424V76.7123H57.4056C58.2929 76.7123 59.0128 75.9925 59.0128 75.1052C59.0128 74.2179 58.2929 73.498 57.4056 73.498Z" fill="#EB6753"/>
<path d="M34.5352 104.85C33.648 104.85 32.9281 105.57 32.9281 106.457V109.01C32.9281 109.897 33.648 110.617 34.5352 110.617C35.4225 110.617 36.1424 109.897 36.1424 109.01V106.457C36.1424 105.57 35.4225 104.85 34.5352 104.85Z" fill="#EB6753"/>
<path d="M125.075 41.3217C125.522 41.3217 125.967 41.1375 126.284 40.7755C126.87 40.108 126.804 39.093 126.136 38.5071L107.91 22.5131C107.244 21.9271 106.227 21.9941 105.643 22.6596C105.057 23.3271 105.123 24.3421 105.79 24.928L124.016 40.922C124.321 41.1898 124.7 41.3217 125.075 41.3217Z" fill="#EB6753"/>
<path d="M102.433 21.4543C102.88 21.4543 103.323 21.2701 103.641 20.9081C104.227 20.2406 104.161 19.2256 103.495 18.6397L102.694 17.9366C102.027 17.3506 101.013 17.4176 100.426 18.083C99.84 18.7506 99.906 19.7655 100.572 20.3514L101.373 21.0546C101.678 21.3224 102.056 21.4543 102.433 21.4543Z" fill="#EB6753"/>
<path d="M125.469 85.3661V68.3304H134.04C138.69 68.3304 140.855 62.5661 137.362 59.5018L78.3048 7.68758C76.4191 6.01609 73.5476 6.01609 71.6618 7.68758L46.7404 29.5446V22.8804H49.1191C50.5333 22.8804 51.6904 21.7447 51.6904 20.3089V12.5303C51.6904 11.1161 50.5333 9.95901 49.1191 9.95901H23.1262C21.7119 9.95901 20.5548 11.1161 20.5548 12.5303V20.3089C20.5548 21.7447 21.7119 22.8804 23.1262 22.8804H25.5048V48.1875L12.6476 59.5018C9.13331 62.5661 11.319 68.3304 15.969 68.3304H24.5619V140.352H20.0191C19.1404 140.352 18.4119 141.08 18.4119 141.959C18.4119 142.837 19.1404 143.566 20.0191 143.566H129.991C130.89 143.566 131.598 142.837 131.598 141.959C131.598 141.08 130.89 140.352 129.991 140.352H125.469V123.102C133.312 120.423 138.99 112.987 138.99 104.223C138.99 95.4804 133.312 88.0447 125.469 85.3661ZM23.769 19.6661V13.1733H48.4761V19.6661H23.769ZM43.5261 22.9018V32.3732L28.719 45.3589V22.9018H43.5261ZM15.969 65.1161C14.2762 65.1161 13.4834 63.016 14.7476 61.9018L73.7833 10.0876C74.1262 9.78756 74.5548 9.63754 74.9833 9.63754C75.4118 9.63754 75.8404 9.78756 76.1833 10.0876L135.24 61.9018C136.505 63.016 135.733 65.1161 134.04 65.1161H15.969ZM122.255 140.352C83.3833 140.352 85.6975 140.352 27.7762 140.352V68.3304H122.255V84.5519C113.726 83.159 104.876 87.5303 100.998 95.759H76.6118V88.6661C76.6118 84.9161 73.5905 81.8946 69.8405 81.8946C66.1333 81.8946 63.0904 84.9376 63.0904 88.6661V119.823C63.0904 123.509 66.069 126.595 69.8405 126.595C73.5905 126.595 76.6118 123.552 76.6118 119.823V112.709H100.998C104.383 119.888 111.54 124.195 119.04 124.195C120.069 124.195 121.398 124.066 122.255 123.916V140.352ZM99.7761 109.495H66.3047V98.9732C66.3047 98.9732 70.2904 98.9947 99.7761 98.9732C98.9405 102.08 98.8118 105.916 99.7761 109.495ZM73.3975 112.709V119.823C73.3975 121.773 71.8118 123.38 69.8405 123.38C67.9118 123.38 66.3047 121.795 66.3047 119.823V112.709H73.3975ZM66.3047 95.759V88.6661C66.3047 86.6947 67.8904 85.1089 69.8405 85.1089C71.8118 85.1089 73.3975 86.716 73.3975 88.6661V95.759H66.3047ZM119.04 120.98C114.69 120.98 110.748 119.287 107.748 116.566C104.769 113.845 102.776 110.073 102.369 105.916C101.383 96.0161 109.248 87.509 119.04 87.509C128.212 87.509 135.776 94.9875 135.776 104.223C135.776 113.566 128.126 120.98 119.04 120.98Z" fill="#181A20"/>
<path d="M119.04 87.509C109.248 87.509 101.383 96.0161 102.369 105.916C102.776 110.073 104.769 113.845 107.748 116.566C110.747 119.288 114.69 120.98 119.04 120.98C128.126 120.98 135.776 113.566 135.776 104.223C135.776 94.9876 128.212 87.509 119.04 87.509ZM123.348 111.38C119.405 111.38 116.212 108.166 116.212 104.245C116.212 100.302 119.405 97.0875 123.348 97.0875C127.29 97.0875 130.505 100.302 130.505 104.245C130.505 108.166 127.29 111.38 123.348 111.38Z" fill="url(#paint0_linear_856_20932)"/>
<path d="M73.3975 88.6661V95.759H66.3047V88.6661C66.3047 86.6947 67.8904 85.1089 69.8404 85.1089C71.8118 85.1089 73.3975 86.716 73.3975 88.6661Z" fill="#DDDDDD"/>
<path d="M73.3975 112.709V119.823C73.3975 121.773 71.8118 123.38 69.8404 123.38C67.9118 123.38 66.3047 121.795 66.3047 119.823V112.709H73.3975Z" fill="#DDDDDD"/>
<path d="M23.7686 13.1743H48.4757V19.6672H23.7686V13.1743Z" fill="url(#paint1_linear_856_20932)"/>
<path d="M43.5261 22.9019V32.3732L28.719 45.359V22.9019H43.5261Z" fill="url(#paint2_linear_856_20932)"/>
<path d="M75.0047 30.0376C68.0189 30.0376 62.319 35.7375 62.319 42.7233C62.319 49.709 68.0189 55.3875 75.0047 55.3875C81.9904 55.3875 87.669 49.709 87.669 42.7233C87.669 35.7375 81.9904 30.0376 75.0047 30.0376ZM75.0047 52.1732C69.7975 52.1732 65.5333 47.9304 65.5333 42.7233C65.5333 37.4947 69.7975 33.2519 75.0047 33.2519C80.2118 33.2519 84.4547 37.4947 84.4547 42.7233C84.4548 47.9304 80.2118 52.1732 75.0047 52.1732Z" fill="#181A20"/>
<path d="M84.4548 42.7232C84.4548 47.9303 80.2118 52.1732 75.0047 52.1732C69.7976 52.1732 65.5333 47.9303 65.5333 42.7232C65.5333 37.4946 69.7976 33.2518 75.0047 33.2518C80.2118 33.2518 84.4548 37.4946 84.4548 42.7232Z" fill="#DDDDDD"/>
<path d="M85.3967 121.08H86.3729C87.2602 121.08 87.9801 120.361 87.9801 119.473C87.9801 118.586 87.2602 117.866 86.3729 117.866H85.3967C84.5094 117.866 83.7896 118.586 83.7896 119.473C83.7896 120.361 84.5094 121.08 85.3967 121.08Z" fill="#EB6753"/>
<path d="M91.841 121.08H100.685C101.573 121.08 102.293 120.361 102.293 119.473C102.293 118.586 101.573 117.866 100.685 117.866H91.841C90.9537 117.866 90.2338 118.586 90.2338 119.473C90.2338 120.361 90.9537 121.08 91.841 121.08Z" fill="#EB6753"/>
<path d="M123.348 97.0875C119.405 97.0875 116.212 100.302 116.212 104.245C116.212 108.166 119.405 111.38 123.348 111.38C127.29 111.38 130.505 108.166 130.505 104.245C130.505 100.302 127.29 97.0875 123.348 97.0875ZM123.348 108.166C121.183 108.166 119.426 106.409 119.426 104.245C119.426 102.08 121.183 100.302 123.348 100.302C125.512 100.302 127.29 102.08 127.29 104.245C127.29 106.409 125.512 108.166 123.348 108.166Z" fill="#181A20"/>
<defs>
<linearGradient id="paint0_linear_856_20932" x1="119.031" y1="87.509" x2="119.031" y2="120.98" gradientUnits="userSpaceOnUse">
<stop stop-color="#DDDDDD" stop-opacity="0"/>
<stop offset="1" stop-color="#DDDDDD"/>
</linearGradient>
<linearGradient id="paint1_linear_856_20932" x1="36.1221" y1="13.1743" x2="36.1221" y2="19.6672" gradientUnits="userSpaceOnUse">
<stop stop-color="#DDDDDD" stop-opacity="0"/>
<stop offset="1" stop-color="#DDDDDD"/>
</linearGradient>
<linearGradient id="paint2_linear_856_20932" x1="36.1226" y1="22.9019" x2="36.1226" y2="45.359" gradientUnits="userSpaceOnUse">
<stop stop-color="#DDDDDD" stop-opacity="0"/>
<stop offset="1" stop-color="#DDDDDD"/>
</linearGradient>
</defs>
</svg>
