<svg width="150" height="150" viewBox="0 0 150 150" fill="none" xmlns="http://www.w3.org/2000/svg">
<path d="M9.58401 96.2051C10.4713 96.2051 11.1912 95.4853 11.1912 94.598V93.8802C11.1912 92.9929 10.4713 92.2731 9.58401 92.2731C8.69674 92.2731 7.97687 92.9929 7.97687 93.8802V94.598C7.97687 95.4853 8.69674 96.2051 9.58401 96.2051Z" fill="#EB6753"/>
<path d="M7.97687 123.462C7.97687 124.349 8.69674 125.069 9.58401 125.069C10.4713 125.069 11.1912 124.349 11.1912 123.462V100.179C11.1912 99.2918 10.4713 98.5719 9.58401 98.5719C8.69674 98.5719 7.97687 99.2918 7.97687 100.179V123.462Z" fill="#EB6753"/>
<path d="M103.602 26.7109C102.934 26.125 101.921 26.1899 101.333 26.8574C100.748 27.525 100.814 28.5399 101.48 29.1258L120.071 45.44C120.737 46.024 121.752 45.962 122.339 45.2935C122.925 44.626 122.858 43.611 122.193 43.0251L103.602 26.7109Z" fill="#EB6753"/>
<path d="M97.121 21.0252C96.4535 20.4434 95.4406 20.5083 94.8525 21.1758C94.2687 21.8434 94.3357 22.8583 95.0033 23.4442L96.1563 24.455C96.8344 25.0448 97.8442 24.9651 98.4247 24.3043C99.0086 23.6368 98.9416 22.6218 98.2741 22.0359L97.121 21.0252Z" fill="#EB6753"/>
<path d="M121.837 87.7156V82.9156H123.701C124.579 82.9156 125.308 82.2085 125.308 81.3085C125.308 80.4299 124.579 79.7014 123.701 79.7014H120.808V68.5799H125.672C130.215 68.5799 132.358 62.9442 128.929 59.9441L71.7579 9.77992C69.915 8.15132 67.1079 8.15132 65.2436 9.77992L41.2222 30.8656V24.587H43.4723C44.865 24.587 46.0008 23.4514 46.0008 22.037V14.5155C46.0008 13.1013 44.865 11.9655 43.4723 11.9655H18.2937C16.9008 11.9655 15.7652 13.1013 15.7652 14.5155V22.037C15.7652 23.4513 16.9008 24.587 18.2937 24.587H20.5651V49.0156L8.11513 59.9442C4.70792 62.9442 6.82933 68.5799 11.3722 68.5799H16.2365V138.094C14.565 138.137 12.8508 138.158 11.1794 138.201C10.2793 138.244 9.5937 138.973 9.61502 139.851C9.63647 140.73 10.3437 141.416 11.2222 141.416H11.2436C12.2723 141.394 116.651 141.458 116.651 141.437C131.522 141.33 143.565 129.201 143.565 114.287C143.565 101.173 134.222 90.2227 121.837 87.7156ZM18.9794 21.3727V15.1798H42.7865V21.3727L18.9794 21.3727ZM38.0079 24.587V33.6941L23.7794 46.187V24.587H38.0079ZM11.3722 65.3656C9.78647 65.3656 9.03651 63.3941 10.2365 62.3441L67.365 12.1799C68.0293 11.6227 68.9936 11.6227 69.6365 12.1799L126.808 62.3441C128.008 63.3941 127.258 65.3656 125.672 65.3656L11.3722 65.3656ZM69.3793 138.03H36.7651V89.7727C36.7651 88.4227 37.858 87.3512 39.2079 87.3512H66.9579C68.2864 87.3512 69.3793 88.4227 69.3793 89.7727L69.3793 138.03ZM72.5936 138.03V89.7727C72.5936 86.6656 70.0651 84.137 66.9579 84.137H39.2079C36.1008 84.137 33.5508 86.6656 33.5508 89.7727V138.03H19.4508V68.6012H117.594V79.7014H109.087C108.186 79.7014 107.479 80.4299 107.479 81.3085C107.479 82.2085 108.186 82.9156 109.087 82.9156H111.036V87.7156C98.6079 90.2442 89.3079 101.408 89.3079 114.287V114.308C89.3293 124.444 95.0722 133.444 103.515 138.03L72.5936 138.03ZM118.622 82.9156V87.2656C117.465 87.1584 115.515 87.1584 114.251 87.2656V82.9156H118.622ZM116.458 138.223C103.087 138.223 92.5222 127.251 92.5222 114.287C92.5222 101.173 103.365 90.1798 116.865 90.3942C129.722 90.6299 140.351 101.13 140.351 114.287C140.351 127.487 129.636 138.223 116.458 138.223Z" fill="#181A20"/>
<path d="M118.622 82.9156V87.2656C117.465 87.1585 115.515 87.1585 114.251 87.2656V82.9156H118.622Z" fill="#DDDDDD"/>
<path d="M18.9793 15.1799H42.7864V21.3728H18.9793V15.1799Z" fill="url(#paint0_linear_856_20931)"/>
<path d="M38.0079 24.587V33.6942L23.7794 46.1871V24.587H38.0079Z" fill="url(#paint1_linear_856_20931)"/>
<path d="M66.9579 87.3512H39.2079C37.858 87.3512 36.7651 88.4226 36.7651 89.7726V138.03H69.3793V89.7726C69.3793 88.4226 68.2865 87.3512 66.9579 87.3512ZM62.908 114.373H60.7222C59.8223 114.373 59.1151 113.666 59.1151 112.766C59.1151 111.887 59.8223 111.158 60.7222 111.158H62.908C63.7865 111.158 64.5151 111.887 64.5151 112.766C64.5151 113.666 63.7865 114.373 62.908 114.373Z" fill="url(#paint2_linear_856_20931)"/>
<path d="M68.5436 31.2727C61.6651 31.2727 56.0723 36.8655 56.0723 43.7442C56.0723 50.6013 61.6651 56.1727 68.5436 56.1727C75.4008 56.1727 80.9723 50.6013 80.9723 43.7442C80.9723 36.8655 75.4008 31.2727 68.5436 31.2727ZM68.5436 52.9584C63.4437 52.9584 59.2866 48.8227 59.2866 43.7442C59.2866 38.6442 63.4437 34.487 68.5436 34.487C73.6223 34.487 77.758 38.6441 77.758 43.7442C77.758 48.8227 73.6223 52.9584 68.5436 52.9584Z" fill="#181A20"/>
<path d="M77.758 43.7441C77.758 48.8227 73.6223 52.9584 68.5436 52.9584C63.4437 52.9584 59.2866 48.8227 59.2866 43.7441C59.2866 38.6441 63.4437 34.4869 68.5436 34.4869C73.6223 34.4869 77.758 38.6441 77.758 43.7441Z" fill="#DDDDDD"/>
<path d="M64.5151 112.766C64.5151 113.666 63.7865 114.373 62.908 114.373H60.7222C59.8223 114.373 59.1151 113.666 59.1151 112.766C59.1151 111.887 59.8223 111.158 60.7222 111.158H62.908C63.7865 111.158 64.5151 111.887 64.5151 112.766Z" fill="#181A20"/>
<path d="M95.6666 89.2764C96.0119 89.2764 96.3614 89.1655 96.6564 88.9332C96.9033 88.7407 97.1545 88.5482 97.4077 88.364C98.1255 87.8409 98.2824 86.8364 97.7613 86.1186C97.2382 85.4008 96.2337 85.2397 95.5159 85.765C95.2293 85.9742 94.9488 86.1877 94.6726 86.4053C93.9737 86.9515 93.8523 87.9622 94.4006 88.6612C94.7166 89.0651 95.1895 89.2764 95.6666 89.2764Z" fill="#EB6753"/>
<path d="M83.0585 108.782C83.1715 108.807 83.2845 108.817 83.3975 108.817C84.1382 108.817 84.8058 108.301 84.967 107.547C86.1807 101.883 88.9262 96.6321 92.9085 92.3652C93.5154 91.7165 93.4798 90.6995 92.8311 90.0947C92.1824 89.4878 91.1674 89.5234 90.5606 90.1721C86.1807 94.8659 83.1589 100.642 81.8238 106.873C81.6376 107.742 82.19 108.596 83.0585 108.782Z" fill="#EB6753"/>
<path d="M116.451 96.0754C115.563 96.0754 114.844 96.7953 114.844 97.6826C114.844 98.5699 115.563 99.2897 116.451 99.2897C124.723 99.2897 131.453 106.02 131.453 114.292C131.453 122.572 124.723 129.311 116.451 129.311C111.171 129.311 106.373 126.615 103.621 122.099C103.158 121.344 102.171 121.103 101.411 121.564C100.653 122.026 100.413 123.016 100.875 123.774C104.217 129.254 110.041 132.525 116.451 132.525C126.495 132.525 134.667 124.345 134.667 114.292C134.667 104.247 126.495 96.0754 116.451 96.0754Z" fill="#181A20"/>
<path d="M118.044 111.608V105.158C118.044 104.28 117.336 103.551 116.437 103.551C115.558 103.551 114.829 104.28 114.829 105.158V111.608C112.558 112.294 110.886 114.394 110.886 116.901C110.886 119.966 113.372 122.451 116.437 122.451C119.501 122.451 122.008 119.966 122.008 116.901C122.008 114.394 120.337 112.294 118.044 111.608ZM116.437 119.237C115.151 119.237 114.101 118.187 114.101 116.901C114.101 115.616 115.151 114.544 116.437 114.544C117.722 114.544 118.794 115.616 118.794 116.901C118.794 118.187 117.722 119.237 116.437 119.237Z" fill="#181A20"/>
<path d="M118.794 116.901C118.794 118.187 117.722 119.237 116.437 119.237C115.151 119.237 114.101 118.187 114.101 116.901C114.101 115.615 115.151 114.544 116.437 114.544C117.722 114.544 118.794 115.615 118.794 116.901Z" fill="#DDDDDD"/>
<defs>
<linearGradient id="paint0_linear_856_20931" x1="30.8829" y1="15.1799" x2="30.8829" y2="21.3728" gradientUnits="userSpaceOnUse">
<stop stop-color="#DDDDDD" stop-opacity="0"/>
<stop offset="1" stop-color="#DDDDDD"/>
</linearGradient>
<linearGradient id="paint1_linear_856_20931" x1="30.8936" y1="24.587" x2="30.8936" y2="46.1871" gradientUnits="userSpaceOnUse">
<stop stop-color="#DDDDDD" stop-opacity="0"/>
<stop offset="1" stop-color="#DDDDDD"/>
</linearGradient>
<linearGradient id="paint2_linear_856_20931" x1="53.0722" y1="87.3512" x2="53.0722" y2="138.03" gradientUnits="userSpaceOnUse">
<stop stop-color="#DDDDDD" stop-opacity="0"/>
<stop offset="1" stop-color="#DDDDDD"/>
</linearGradient>
</defs>
</svg>
