<svg width="1012" height="512" viewBox="0 0 1012 512" fill="none" xmlns="http://www.w3.org/2000/svg">
<path d="M485.682 494.547C485.682 503.626 386.505 510.983 264.162 510.983C141.819 510.983 42.6416 503.626 42.6416 494.547C42.6416 485.471 141.819 478.113 264.162 478.113C386.505 478.113 485.682 485.471 485.682 494.547Z" fill="#E5E3E1"/>
<path d="M304.257 233.279H545.565V216.895H304.257V233.279Z" fill="#BAB4A8"/>
<path d="M304.257 216.895L355.087 143.006H571.943L545.565 216.895H304.257Z" fill="#E2582D"/>
<path d="M311.072 400.358H545.565V233.279H311.072V400.358Z" fill="#E5E3E1"/>
<path d="M456.551 242.735H444.052C444.072 242.568 444.093 242.401 444.114 242.233C444.519 239.014 444.856 235.969 445.076 233.279H462.732H456.551V242.735Z" fill="#CECAC2"/>
<path d="M475.439 400.358H456.551V281.921H475.439V400.358ZM456.551 265.299V242.735H462.732V245.749L465.801 242.735H475.439V254.172L456.551 265.299Z" fill="#CECAC2"/>
<path d="M475.439 242.735H465.801L475.439 233.279V242.735ZM462.732 242.735H456.551V233.279H462.732V242.735Z" fill="#C3BEB4"/>
<path d="M921.594 351.456C921.594 351.456 925.291 329.232 934.398 325.508C943.506 321.785 942.766 318.458 944.517 307.17C946.269 295.883 961.607 302.117 967.132 292.377C972.656 282.638 978.074 276.825 982.6 288.078C987.127 299.333 980.378 310.488 973.425 313.261C966.473 316.036 975.893 328.093 970.268 335.247C964.642 342.403 957.543 344.511 959.609 353.823C961.678 363.134 961.879 368.303 958.358 373.214C954.837 378.126 948.966 383.637 948.966 383.637L909.281 377.48C909.281 377.48 903.778 362.82 911.615 362.43C919.452 362.041 922.194 362.146 921.594 351.456Z" fill="#678742"/>
<path d="M925.692 380.026C925.692 380.026 939.484 359.048 952.532 333.139C965.581 307.227 965.581 307.227 965.581 307.227C965.581 307.227 942.43 365.927 925.692 380.026Z" fill="#37664A"/>
<path d="M969.898 408.776C969.898 408.776 970.088 395.234 976.571 392.182C983.054 389.13 982.101 387.223 982.101 380.358C982.101 373.491 994.495 375.78 997.546 369.485C1000.6 363.191 1004.03 359.238 1008.8 365.507C1013.56 371.775 1009.75 379.022 1004.79 381.311C999.835 383.601 1008.41 389.893 1004.98 394.661C1001.55 399.43 996.403 401.338 999.072 406.678C1001.74 412.019 1002.5 415.069 1000.41 418.311C998.309 421.553 994.495 425.369 994.495 425.369H963.604C963.604 425.369 957.694 417.168 963.604 416.214C969.515 415.261 971.613 415.069 969.898 408.776Z" fill="#37664A"/>
<path d="M976.381 425.369C976.381 425.369 984.39 411.636 991.253 395.044C998.119 378.449 998.119 378.449 998.119 378.449C998.119 378.449 987.439 415.451 976.381 425.369Z" fill="#37664A"/>
<path d="M932.852 398.472C932.852 398.472 933.159 376.522 943.669 371.575C954.178 366.628 952.631 363.537 952.631 352.407C952.631 341.278 972.723 344.988 977.669 334.786C982.615 324.583 988.177 318.176 995.904 328.336C1003.63 338.496 997.45 350.244 989.414 353.954C981.378 357.664 995.285 367.865 989.723 375.594C984.159 383.323 975.813 386.414 980.14 395.071C984.468 403.728 985.705 408.676 982.305 413.93C978.906 419.186 972.722 425.369 972.722 425.369H922.651C922.651 425.369 913.07 412.076 922.651 410.529C932.233 408.983 935.633 408.676 932.852 398.472Z" fill="#99B746"/>
<path d="M943.36 425.369C943.36 425.369 956.341 403.11 967.47 376.213C978.597 349.316 978.597 349.316 978.597 349.316C978.597 349.316 961.287 409.292 943.36 425.369Z" fill="#678742"/>
<path d="M462.732 425.369C462.732 425.369 434.627 415.896 435.651 407.612C436.501 400.752 447.896 404.038 447.896 404.038C447.896 404.038 428.829 391.742 438.721 382.331C445.383 375.995 454.386 389.815 454.386 389.815C454.386 389.815 450.696 376.891 456.876 376.582C463.06 376.275 464.895 393.834 464.895 393.834C464.895 393.834 468.297 371.575 477.258 375.904C486.223 380.232 481.895 423.824 481.895 423.824L462.732 425.369Z" fill="#678742"/>
<path d="M684.861 417.158H938.311V239.514H684.861V417.158Z" fill="#BAB4A8"/>
<path d="M475.439 233.279V417.158H684.861V233.279L578.124 128.577L475.439 233.279Z" fill="#E5E3E1"/>
<path d="M953.981 233.272H689.601L674.517 217.738L651.324 193.871L632.631 174.63L620.933 162.586L608.324 149.6L596.306 137.234L587.899 128.577L576.179 116.508H841.473L853.094 128.577L861.452 137.234L873.371 149.6L885.882 162.586L897.478 174.63L916.025 193.871L939.021 217.738L953.981 233.272Z" fill="#E2582D"/>
<path d="M462.731 232.763V245.749L576.783 133.833L689.6 245.749V232.144L576.165 116.521L462.731 232.763Z" fill="#F98D43"/>
<path d="M689.601 245.749H953.971V233.279H689.601V245.749Z" fill="#E2582D"/>
<path d="M438.829 275.736L475.921 253.89H619.747L585.542 275.736H438.829Z" fill="#F98D43"/>
<path d="M619.747 253.89V261.722L586.367 281.921H438.829V275.736H585.542L619.747 253.89Z" fill="#E2582D"/>
<path d="M938.311 253.89H684.861V241.046L689.601 245.748H938.311V253.89Z" fill="#89857C"/>
<path d="M684.861 253.89L576.165 145.478L475.439 245.748V233.279L576.784 133.833L684.861 241.046V253.89Z" fill="#A09D9A"/>
<path d="M912.348 393.218H839.404V270.379H912.348V393.218Z" fill="#E5E3E1"/>
<path d="M875.864 275.743V387.856H844.339V275.743H875.864Z" fill="#75726D"/>
<path d="M907.391 275.743V387.856H879.376V275.743H907.391Z" fill="#75726D"/>
<path d="M667.553 387.858H628.814V270.379H667.553V387.858Z" fill="white"/>
<path d="M663.018 275.743V382.489H633.344V275.743H663.018Z" fill="#75726D"/>
<path d="M619.747 261.722V417.158H475.439V281.921H586.367L619.747 261.722Z" fill="#BAB4A8"/>
<path d="M571.943 417.158H507.651V292.225H571.943V417.158Z" fill="#54514C"/>
<path d="M518.504 352.76C518.504 354.694 517.253 356.264 515.706 356.264C514.162 356.264 512.909 354.694 512.909 352.76C512.909 350.824 514.162 349.257 515.706 349.257C517.253 349.257 518.504 350.824 518.504 352.76Z" fill="#BAB4A8"/>
<path d="M861.452 137.233H596.307L587.899 128.576H853.095L861.452 137.233Z" fill="#EA7A2F"/>
<path d="M885.881 162.586H620.933L608.324 149.6H873.371L885.881 162.586Z" fill="#EA7A2F"/>
<path d="M916.025 193.871H651.325L632.631 174.63H897.478L916.025 193.871Z" fill="#EA7A2F"/>
<path d="M953.981 233.272H689.601L674.518 217.738H939.021L953.981 233.272Z" fill="#EA7A2F"/>
<path d="M953.971 425.369H462.731V417.158H953.971V425.369Z" fill="#A89F91"/>
<path d="M844.339 330.178L875.864 361.713V374.4L844.339 342.866V330.178Z" fill="#54514C"/>
<path d="M902.001 387.856H889.316L879.376 377.913V365.226L902.001 387.856Z" fill="#54514C"/>
<path d="M907.391 298.396L884.741 275.743H907.391V298.396Z" fill="#54514C"/>
<path d="M856.009 275.743L875.864 295.603V325.827L844.339 294.292V275.743H856.009Z" fill="#54514C"/>
<path d="M907.391 327.16V357.384L879.376 329.337V299.116L907.391 327.16Z" fill="#54514C"/>
<path d="M801.552 393.218H728.607V270.379H801.552V393.218Z" fill="#E5E3E1"/>
<path d="M765.067 275.743V387.856H733.542V275.743H765.067Z" fill="#75726D"/>
<path d="M796.594 275.743V387.856H768.579V275.743H796.594Z" fill="#75726D"/>
<path d="M733.542 330.178L765.067 361.713V374.4L733.542 342.866V330.178Z" fill="#54514C"/>
<path d="M791.204 387.856H778.519L768.579 377.913V365.226L791.204 387.856Z" fill="#54514C"/>
<path d="M796.594 298.396L773.944 275.743H796.594V298.396Z" fill="#54514C"/>
<path d="M745.212 275.743L765.067 295.603V325.827L733.542 294.292V275.743H745.212Z" fill="#54514C"/>
<path d="M796.594 327.16V357.384L768.579 329.337V299.116L796.594 327.16Z" fill="#54514C"/>
<path d="M663.018 317.862V326.89L633.344 297.235V288.183L663.018 317.862Z" fill="#BAB4A8"/>
<path d="M663.018 361.786V381.252L633.344 351.596V332.108L663.018 361.786Z" fill="#BAB4A8"/>
<path d="M663.017 284.35V301.76L637.029 275.743H654.41L663.017 284.35Z" fill="#BAB4A8"/>
<path d="M116.177 454.577H384.08V87.2346H116.177V454.577Z" fill="#E5E3E1"/>
<path d="M353.081 140.875H143.313C141.886 140.875 140.729 139.717 140.729 138.29C140.729 136.862 141.886 135.705 143.313 135.705H353.081C354.508 135.705 355.667 136.862 355.667 138.29C355.667 139.717 354.508 140.875 353.081 140.875Z" fill="#BAB4A8"/>
<path d="M353.081 187.18H143.313C141.886 187.18 140.729 186.023 140.729 184.595C140.729 183.167 141.886 182.01 143.313 182.01H353.081C354.508 182.01 355.667 183.167 355.667 184.595C355.667 186.023 354.508 187.18 353.081 187.18Z" fill="#BAB4A8"/>
<path d="M268.013 285.498H143.313C141.886 285.498 140.729 284.341 140.729 282.911C140.729 281.486 141.886 280.326 143.313 280.326H268.013C269.44 280.326 270.597 281.486 270.597 282.911C270.597 284.341 269.44 285.498 268.013 285.498Z" fill="#BAB4A8"/>
<path d="M268.013 315.676H143.313C141.886 315.676 140.729 314.519 140.729 313.091C140.729 311.661 141.886 310.506 143.313 310.506H268.013C269.44 310.506 270.597 311.661 270.597 313.091C270.597 314.519 269.44 315.676 268.013 315.676Z" fill="#BAB4A8"/>
<path d="M353.08 224.427H182.947C181.52 224.427 180.363 223.27 180.363 221.842C180.363 220.414 181.52 219.257 182.947 219.257H353.08C354.507 219.257 355.667 220.414 355.667 221.842C355.667 223.27 354.507 224.427 353.08 224.427Z" fill="#BAB4A8"/>
<path d="M353.08 257.982H182.947C181.52 257.982 180.363 256.825 180.363 255.398C180.363 253.97 181.52 252.811 182.947 252.811H353.08C354.507 252.811 355.667 253.97 355.667 255.398C355.667 256.825 354.507 257.982 353.08 257.982Z" fill="#BAB4A8"/>
<path d="M299.533 111.148H198.642C197.378 111.148 196.352 110.121 196.352 108.857V74.6639C196.352 73.3967 197.378 72.3725 198.642 72.3725H299.533C300.798 72.3725 301.824 73.3967 301.824 74.6639V108.857C301.824 110.121 300.798 111.148 299.533 111.148Z" fill="#F98D43"/>
<path d="M327.173 357.453H295.151C295.151 357.453 297.426 353.801 300.036 340.416C302.645 327.009 297.509 308.907 297.509 308.907L311.162 310.827L324.814 308.907C324.814 308.907 319.68 327.009 322.289 340.416C324.899 353.801 327.173 357.453 327.173 357.453Z" fill="#75726D"/>
<path d="M328.733 300.722C328.733 307.919 320.866 313.753 311.162 313.753C301.458 313.753 293.591 307.919 293.591 300.722C293.591 293.525 301.458 287.693 311.162 287.693C320.866 287.693 328.733 293.525 328.733 300.722Z" fill="#54514C"/>
<path d="M334.994 291.678C334.994 301.196 324.325 308.914 311.162 308.914C297.998 308.914 287.327 301.196 287.327 291.678C287.327 282.159 297.998 274.444 311.162 274.444C324.325 274.444 334.994 282.159 334.994 291.678Z" fill="#75726D"/>
<path d="M329.7 359.584V359.605C329.7 360.773 328.74 361.736 327.569 361.736H295.151C293.98 361.736 293.021 360.773 293.021 359.605V359.584C293.021 358.416 293.98 357.453 295.151 357.453H327.569C328.74 357.453 329.7 358.416 329.7 359.584Z" fill="#BAB4A8"/>
<path d="M329.7 363.864V363.885C329.7 365.054 328.74 366.016 327.569 366.016H295.151C293.98 366.016 293.021 365.054 293.021 363.885V363.864C293.021 362.696 293.98 361.736 295.151 361.736H327.569C328.74 361.736 329.7 362.696 329.7 363.864Z" fill="#54514C"/>
<path d="M335.26 390.571H287.461C286.705 390.571 285.981 390.165 285.626 389.499C277.969 375.104 295.151 366.016 295.151 366.016H327.569C327.569 366.016 344.751 375.104 337.095 389.499C336.74 390.165 336.016 390.571 335.26 390.571Z" fill="#75726D"/>
<path d="M336.866 394.872H286.111V390.571H336.866V394.872Z" fill="#54514C"/>
<path d="M357.706 412.266H264.645C263.381 412.266 262.354 411.242 262.354 409.975V397.163C262.354 395.899 263.381 394.872 264.645 394.872H357.706C358.97 394.872 359.997 395.899 359.997 397.163V409.975C359.997 411.242 358.97 412.266 357.706 412.266Z" fill="#75726D"/>
<path d="M91.3179 165.757C91.3179 165.757 89.1837 183.836 101.342 189.015C113.501 194.191 122.879 169.417 122.879 169.417C122.879 169.417 126.747 161.232 119.639 155.093C112.533 148.954 95.949 149.6 91.3179 165.757Z" fill="#231547"/>
<path d="M101.333 173.942C101.333 173.942 100.255 169.634 97.6711 172.004C95.0865 174.373 96.2714 177.389 98.6402 179.004C101.01 180.619 101.225 180.835 101.333 182.45C101.44 184.066 102.547 197.746 95.5333 202.377C88.5183 207.01 95.7452 218.21 105.377 216.918C115.008 215.626 122.654 208.733 122.654 208.733C122.654 208.733 119.424 204.533 117.162 201.946C114.901 199.361 115.008 194.157 115.008 194.157C115.008 194.157 119.424 194.084 122.116 186.761C124.808 179.435 122.654 168.019 122.654 168.019C122.654 168.019 119.854 170.065 114.685 168.773C109.517 167.48 105.533 170.711 104.778 171.788C104.025 172.865 103.163 177.389 102.086 176.742C101.01 176.096 101.333 173.942 101.333 173.942Z" fill="#E54863"/>
<path d="M104.873 189.719C104.873 189.719 107.446 195.165 110.191 197.729C111.862 199.29 114.068 199.363 115.604 198.738C114.977 196.442 115.008 194.157 115.008 194.157C115.008 194.157 109.207 194.356 107.04 192.037C104.873 189.719 104.873 189.719 104.873 189.719Z" fill="#AF2845"/>
<path d="M194.542 242.428L201.642 265.544C202.098 267.033 203.759 267.783 205.177 267.141L233.831 254.188C235.098 253.615 235.685 252.144 235.16 250.856L218.049 208.941C217.497 207.589 215.937 206.964 214.604 207.557L186.543 220.078C185.203 220.676 184.63 222.268 185.278 223.583L194.389 242.043L194.542 242.428Z" fill="white"/>
<path d="M157.511 488.699C157.293 491.011 142.269 491.982 140.488 491.861C138.682 491.744 138.121 489.673 137.239 488.962C136.353 488.227 135.344 489.478 135.064 491.458C134.81 493.438 127.254 492.796 124.785 492.567C122.343 492.338 122.639 489.054 122.121 484.249C121.725 480.574 122.919 478.626 123.753 476.715C124.002 476.142 124.224 475.546 124.363 474.907C124.883 472.251 119.624 450.719 119.946 433.939C120.243 417.163 122.073 390.498 122.073 390.498C122.611 382.223 144.58 384.196 144.58 384.196C144.58 384.196 142.626 393.793 142.856 395.926C143.086 398.059 134.846 469.903 134.873 472.577L134.88 472.629C135.04 474.119 155.072 482.462 157.096 484.845C159.146 487.223 157.758 486.409 157.511 488.699Z" fill="#E54863"/>
<path d="M157.511 488.699C157.293 491.011 142.269 491.982 140.488 491.861C138.682 491.744 138.121 489.673 137.239 488.962C136.353 488.227 135.344 489.478 135.064 491.458C134.81 493.438 127.254 492.796 124.785 492.567C122.343 492.338 122.64 489.054 122.121 484.249C121.725 480.574 122.919 478.626 123.753 476.715C124.986 477.311 126.281 477.741 127.582 477.758C132.79 477.847 130.628 473.945 132.305 473.349C132.831 473.161 133.789 472.877 134.873 472.577L134.88 472.629C135.04 474.119 155.072 482.462 157.096 484.845C159.146 487.223 157.758 486.409 157.511 488.699Z" fill="#231547"/>
<path d="M112.041 490.811C111.576 493.087 96.5346 492.441 94.777 492.129C92.9936 491.82 92.658 489.701 91.8562 488.899C91.0553 488.071 89.9178 489.207 89.4264 491.146C88.9621 493.087 81.5185 491.639 79.0888 491.146C76.6852 490.656 77.3322 487.425 77.3322 482.59C77.3322 478.894 78.7273 477.084 79.761 475.276C80.0714 474.733 80.3561 474.165 80.5628 473.544C81.3637 470.959 78.4437 448.986 80.5628 432.337C82.656 415.69 87.3335 389.375 87.3335 389.375C88.7554 381.206 110.386 385.523 110.386 385.523C110.386 385.523 107.415 394.854 107.415 397.001C107.415 399.146 91.5205 469.692 91.2619 472.354V472.405C91.2619 473.906 110.283 484.348 112.041 486.935C113.823 489.519 112.532 488.561 112.041 490.811Z" fill="#E54863"/>
<path d="M112.041 490.811C111.576 493.087 96.5346 492.441 94.777 492.129C92.9936 491.82 92.658 489.701 91.8562 488.899C91.0553 488.071 89.9178 489.207 89.4264 491.146C88.9621 493.087 81.5185 491.639 79.0888 491.146C76.6852 490.656 77.3322 487.425 77.3322 482.59C77.3322 478.894 78.7273 477.084 79.761 475.276C80.9243 476 82.1646 476.568 83.4569 476.722C88.6256 477.37 86.8941 473.259 88.6255 472.845C89.1687 472.716 90.1506 472.535 91.2619 472.354V472.405C91.2619 473.906 110.283 484.348 112.041 486.935C113.823 489.519 112.532 488.561 112.041 490.811Z" fill="#231547"/>
<path d="M147.757 388.392C147.422 392.581 140.315 393.873 136.748 395.165C133.208 396.458 123.206 395.837 120.286 393.667C117.365 391.495 116.176 355.098 116.176 355.098C116.176 355.098 111.886 392.269 109.612 392.915C107.363 393.561 88.9364 394.208 84.7491 392.915C80.563 391.623 82.1648 389.375 81.4929 385.498C80.8207 381.618 76.6854 339.924 77.3065 333.796C77.9786 327.644 81.1573 305.672 81.1573 305.672C81.1573 305.672 104.443 305.981 112.842 305.672C121.215 305.36 135.586 303.939 135.586 303.939C135.586 303.939 146.569 374.51 147.681 386.763C147.757 387.565 147.784 388.133 147.757 388.392Z" fill="#41277A"/>
<path d="M147.758 388.392C147.422 392.581 140.315 393.873 136.748 395.165C133.208 396.458 123.206 395.837 120.286 393.667C117.365 391.495 116.177 355.098 116.177 355.098L118.657 333.46H127.548L121.862 336.691C121.862 336.691 123.18 379.655 127.548 385.161C130.158 388.445 140.109 387.798 147.681 386.763C147.758 387.565 147.784 388.133 147.758 388.392Z" fill="#231547"/>
<path d="M140.961 232.967C141.226 233.368 149.037 252.785 150.868 252.893C152.699 253.001 169.714 247.508 175.42 246.324C181.127 245.139 187.266 244.816 188.343 243.416C189.42 242.016 189.851 239.536 192.435 238.029C195.019 236.521 198.895 235.013 199.003 236.521C199.11 238.029 194.48 242.231 194.48 242.231L197.172 252.462C197.172 252.462 190.604 251.924 190.066 252.247C189.528 252.57 171.436 260.647 162.497 264.527C153.56 268.404 148.499 271.312 143.653 269.696C138.807 268.081 134.177 262.288 130.839 254.953C127.501 247.616 125.777 238.244 130.192 234.582C134.608 230.921 137.192 227.259 140.961 232.967Z" fill="#E54863"/>
<path d="M134.707 240.192C134.707 240.192 134.707 296.623 135.586 303.939C136.438 311.281 119.847 309.342 112.325 309.342C104.779 309.342 83.4575 305.878 81.1576 305.672C79.9173 305.568 80.5884 298.408 81.5191 291.428C82.2941 285.354 83.2506 279.407 83.2506 278.321V276.951C83.2506 269.921 83.2506 240.398 83.2506 240.398C83.2506 240.398 79.3742 242.777 77.8491 242.777C77.7204 242.777 77.5135 242.751 77.281 242.673C74.8774 241.977 67.6153 238.047 66.0126 234.789L65.8059 234.376C64.5136 230.705 76.7896 209.585 79.3742 206.794C81.5191 204.441 92.1154 201.519 95.5265 200.614C96.1987 200.433 96.5861 200.33 96.5861 200.33L111.887 206.354L119.847 202.477C119.847 202.477 132.769 207.232 134.5 209.379C136.232 211.524 145.045 232.85 145.045 235.229C145.045 237.607 134.707 240.192 134.707 240.192Z" fill="#99B746"/>
<path d="M101.333 209.917C101.333 209.917 104.145 212.933 105.377 212.179C106.609 211.425 109.624 207.44 110.055 207.225C110.486 207.01 111.993 207.225 111.993 207.225C111.993 207.225 113.932 206.256 114.362 206.256C114.794 206.256 115.762 210.039 116.732 209.278C117.7 208.517 121.039 202.807 120.609 201.838C120.177 200.869 117.593 198.284 116.839 199.038C116.085 199.792 111.993 205.6 111.993 205.6C111.993 205.6 97.5636 198.66 97.0248 198.903C96.4871 199.145 95.5332 200.605 95.5332 200.605C95.5332 200.605 99.0696 208.018 101.333 209.917Z" fill="white"/>
<path d="M83.2412 258.656V240.405C83.2476 240.4 83.2501 240.398 83.2501 240.398C83.2501 240.398 83.2501 249.399 83.2501 258.645C83.2476 258.649 83.2449 258.651 83.2412 258.656Z" fill="#7F9D8B"/>
<path d="M83.2501 258.645C83.2501 249.399 83.2501 240.398 83.2501 240.398C83.2501 240.398 83.2476 240.4 83.2412 240.405V240.398C83.2412 240.398 87.9797 234.151 89.595 228.228C89.595 228.228 91.1019 248.138 83.2501 258.645Z" fill="#5A8349"/>
<path d="M134.715 240.183L132.723 224.244L139.353 238.783L134.715 240.183Z" fill="#5A8349"/>
<path d="M257.828 361.042L222.628 358.768L17.7363 259.93L9.6465 256.026L7.26879 254.864C2.95298 252.769 0.446289 248.503 0.446289 244.057C0.446289 242.275 0.833908 240.464 1.68658 238.757C4.65855 232.786 11.9724 230.332 17.995 233.304L20.837 234.699L28.2027 238.345L230.459 338.088L257.828 361.042Z" fill="#231547"/>
<path d="M28.2027 238.345L17.7363 259.93L9.64648 256.026L20.837 234.699L28.2027 238.345Z" fill="#FFAF5F"/>
<path d="M9.6468 256.026C9.6468 256.026 1.48025 255.336 6.64895 260.938C11.8179 266.539 18.0516 271.108 44.7029 281.447C71.3551 291.788 77.8564 290.768 73.7174 286.431C69.5787 282.093 9.6468 256.026 9.6468 256.026Z" fill="#FFAF5F"/>
<path d="M257.828 361.042L222.629 358.768C222.629 358.768 218.519 345.299 230.459 338.088L257.828 361.042Z" fill="#75726D"/>
<path d="M107.519 303.577C108.009 305.025 96.2243 301.794 93.3034 300.811C90.4093 299.856 91.0556 297.269 83.2503 292.59C82.708 292.255 82.1131 291.868 81.5188 291.428C73.6627 285.61 62.3943 271.213 61.3867 270.464C60.3004 269.637 58.5946 266.74 57.4583 265.111C56.3209 263.509 55.1835 262.526 55.52 258.649C55.7525 255.574 62.9885 240.838 66.0123 234.789C67.615 238.047 74.8771 241.977 77.2807 242.673C75.7818 246.397 71.5947 256.942 71.1812 258.649C70.6898 260.744 72.3186 262.217 76.5048 267.205C78.1075 269.119 80.588 272.893 83.2503 276.951C87.5404 283.491 92.3476 290.86 94.9322 292.746C99.1193 295.823 98.1626 295.642 99.2741 297.915C100.412 300.19 107.027 302.104 107.519 303.577Z" fill="#E54863"/>
<path d="M453.61 476.369C453.61 476.369 454.471 481.804 455.658 483.958C456.844 486.114 456.915 493.413 456.673 494.249C456.432 495.086 446.318 499.494 444.503 497.562C442.689 495.631 442.4 494.361 441.356 495.275C440.309 496.189 439.75 498.74 437.496 498.933C435.244 499.127 420.197 501.263 419.139 498.77C418.08 496.277 417.473 493.413 419.597 491.905C421.72 490.397 434.504 488.953 436.973 485.157C439.443 481.357 438.726 479.932 439.241 479.792C439.757 479.653 451.562 468.777 453.61 476.369Z" fill="#231547"/>
<path d="M399.817 478.06C399.817 478.06 400.14 483.555 401.109 485.816C402.079 488.078 401.433 495.349 401.109 496.155C400.786 496.964 390.287 500.356 388.672 498.257C387.057 496.155 386.895 494.863 385.765 495.672C384.633 496.478 383.827 498.962 381.566 498.933C379.303 498.903 364.121 499.548 363.312 496.964C362.506 494.379 362.183 491.469 364.444 490.177C366.705 488.884 379.568 488.706 382.398 485.17C385.229 481.632 384.654 480.143 385.181 480.056C385.71 479.966 398.525 470.306 399.817 478.06Z" fill="#231547"/>
<path d="M446.647 480.471C443.106 482.437 437.601 480.161 435.69 478.557C433.724 476.93 413.72 401.318 412.094 397.75C410.465 394.208 408.218 369.004 408.218 369.004C408.218 369.004 404.339 383.869 404.005 385.807C403.693 387.746 402.092 477.265 401.418 480.161C400.8 483.055 394.958 483.392 392.374 483.392C389.996 483.392 385.162 481.738 382.397 480.496C382.166 480.367 381.932 480.264 381.726 480.161C379.142 478.869 377.85 376.112 377.85 375.157C377.85 374.174 385.602 296.313 385.602 296.313C385.602 296.313 435.69 281.114 439.307 298.742C442.952 316.347 436.645 385.161 437.213 387.409C437.756 389.684 454.4 466.589 455.073 473.699C455.692 480.807 450.214 478.557 446.647 480.471Z" fill="#41277A"/>
<path d="M395.295 177.228C395.295 177.228 386.411 173.672 389.318 165.918C392.225 158.163 398.202 163.816 398.202 163.816C398.202 163.816 416.197 158.97 422.302 163.493C428.407 168.019 425.66 174.804 425.66 174.804C425.66 174.804 430.668 180.459 428.247 188.859C425.823 197.262 415.001 199.2 415.001 199.2L395.295 177.228Z" fill="#231547"/>
<path d="M395.295 177.228C395.295 177.228 393.4 190.798 396.447 197.262C399.494 203.724 402.564 203.563 402.564 203.563C402.564 203.563 401.173 214.7 398.637 216.077C396.101 217.456 400.786 227.797 407.57 230.219C414.355 232.644 421.301 229.981 423.4 223.961C425.5 217.942 424.369 216.077 424.369 216.077C424.369 216.077 419.631 215.087 418.717 211.641C417.801 208.194 416.616 197.908 416.616 197.908C416.616 197.908 422.82 192.413 422.302 188.376C421.784 184.336 420.009 186.114 419.2 187.083C418.394 188.053 417.1 189.991 416.131 189.182C415.162 188.376 415.647 187.244 415.647 184.822C415.647 182.397 414.516 179.65 412.417 178.197C410.316 176.742 398.039 179.813 395.295 177.228Z" fill="#FFB2A8"/>
<path d="M444.114 242.233C442.125 258.081 438.455 278.243 438.583 281.76C438.79 287.37 440.961 297.477 438.583 300.293C436.723 302.466 415.711 306.602 402.401 306.705C398.628 306.73 395.476 306.421 393.563 305.671C384.956 302.232 383.664 302.001 383.664 298.561C383.664 297.553 383.845 294.091 384.079 289.721C384.413 283.362 384.906 275.09 385.268 269.637V269.609C385.343 268.239 385.421 267.052 385.474 266.119C385.577 264.698 385.602 263.871 385.602 263.871L379.348 274.444L362.549 263.871C362.549 263.871 364.075 260.278 366.322 255.081C371.983 241.899 382.322 218.348 384.31 216.487C387.103 213.902 400.023 209.379 400.023 209.379L408.655 221.01L417.908 209.379C417.908 209.379 441.66 217.701 444.76 222.898C445.898 224.837 445.303 232.772 444.114 242.233Z" fill="#FC4254"/>
<path d="M402.402 306.705L403.048 297.915L384.079 289.721C384.414 283.362 384.906 275.09 385.268 269.636V269.609L399.378 265.604L414.239 270.152C414.239 270.152 427.808 262.579 429.824 259.994C431.84 257.409 431.219 242.545 431.219 242.545C431.255 239.66 432.52 238.446 434.63 238.446C436.944 238.446 440.275 239.907 444.114 242.233C444.094 242.401 444.073 242.568 444.052 242.735C442.604 254.114 440.332 267.579 439.228 275.502C439.216 275.58 439.205 275.658 439.196 275.736C439.051 276.781 438.928 277.725 438.829 278.55C438.671 279.893 438.582 280.922 438.582 281.559C438.582 281.63 438.582 281.699 438.584 281.76C438.719 285.42 439.69 290.993 439.688 295.206C439.688 297.454 439.411 299.315 438.584 300.293C436.724 302.466 415.712 306.602 402.402 306.705Z" fill="#CA2043"/>
<path d="M379.348 274.444L362.549 263.871C362.549 263.871 364.075 260.279 366.322 255.082C370.961 255.858 378.574 257.041 381.556 257.041C382.347 257.041 382.812 256.956 382.812 256.761C382.812 255.469 383.87 237.373 383.87 237.373L385.602 263.871L379.348 274.444Z" fill="#CA2043"/>
<path d="M286.205 232.06L302.963 249.706C303.206 249.96 303.499 250.164 303.825 250.302L406.335 293.976C407.32 294.393 407.941 295.358 407.906 296.428C407.744 301.121 407.961 314.189 414.678 321.721C421.599 329.479 441.266 334.571 447.587 336.044C448.751 336.315 449.935 335.753 450.473 334.686L475.662 284.593C476.257 283.406 475.87 281.971 474.752 281.256C468.45 277.235 448.48 264.889 438.584 263.45C429.271 262.093 421.954 270.326 419.253 273.908C418.548 274.843 417.295 275.166 416.213 274.717L403.173 269.281C402.807 269.128 402.413 269.064 402.017 269.087L386.835 270.04C385.822 270.104 384.867 269.57 384.391 268.674L380.452 261.255C380.04 260.476 379.254 259.96 378.375 259.891L364.538 258.798C363.825 258.741 363.168 258.393 362.721 257.831L353.267 245.964C352.746 245.311 351.94 244.949 351.106 244.995L337.94 245.707C337.045 245.755 336.188 245.336 335.677 244.598L329.98 236.386C329.478 235.664 328.646 235.247 327.769 235.277L317.492 235.625C316.834 235.648 316.195 235.419 315.7 234.986L305.121 225.701C304.535 225.188 303.747 224.965 302.979 225.098L287.642 227.731C285.605 228.082 284.783 230.561 286.205 232.06Z" fill="#FFAF5F"/>
<path d="M440.091 323.228C440.091 323.228 439.014 332.382 439.014 333.675C439.014 334.967 437.614 336.26 435.999 336.475C434.384 336.69 422.861 333.352 422.43 329.853C421.999 326.351 423.938 326.567 425.445 325.49C426.952 324.413 431.23 321.72 431.23 321.72L440.091 323.228Z" fill="#ED827A"/>
<path d="M432.446 313.426C432.446 313.426 428.833 320.859 429.832 322.151C430.831 323.444 440.736 327.967 441.813 326.352C442.89 324.736 445.043 319.89 444.72 318.487C444.397 317.087 434.061 311.702 432.446 313.426Z" fill="white"/>
<path d="M440.844 219.257C440.844 219.257 422.215 221.656 433.415 245.354C444.613 269.05 446.12 273.142 445.689 275.296C445.259 277.45 429.108 312.995 430.831 315.149C432.553 317.303 444.741 322.69 445.754 320.536C446.766 318.38 462.058 283.484 463.996 276.804C465.934 270.127 447.63 220.087 440.844 219.257Z" fill="#FC4254"/>
<path d="M376.728 281.362C376.728 281.362 368.643 291.453 364.281 289.192C359.919 286.93 312.109 262.373 311.946 259.463C311.786 256.555 313.543 254.442 313.543 254.442L376.728 281.362Z" fill="#FC4254"/>
<path d="M311.936 258.333C311.936 258.333 309.684 258.493 308.878 256.878C308.069 255.262 308.878 252.455 308.878 252.455L313.542 254.442L311.936 258.333Z" fill="white"/>
<path d="M308.519 255.395C308.519 255.395 298.217 251.223 296.925 247.508C295.632 243.792 298.54 240.561 301.124 241.044C303.71 241.53 306.294 243.954 306.94 245.73C307.586 247.508 308.878 252.455 308.878 252.455L308.519 255.395Z" fill="#ED827A"/>
<path d="M396.447 210.694C396.447 210.694 398.633 214.548 399.602 217.348C400.571 220.149 400.894 223.597 401.863 222.951C402.832 222.302 408.655 221.01 408.655 221.01C408.655 221.01 411.771 224.997 412.955 223.705C414.14 222.41 422.779 212.179 422.282 210.994C421.784 209.81 418.339 208.194 417.801 208.194C417.262 208.194 408.325 219.257 408.325 219.257C408.325 219.257 402.078 209.702 401.002 208.84C399.925 207.979 396.523 209.532 396.447 210.694Z" fill="white"/>
<path d="M402.564 203.563C402.564 203.563 409.024 202.754 410.962 200.007C410.962 200.007 409.993 207.168 401.787 208.194L402.564 203.563Z" fill="#ED827A"/>
<path d="M408.216 369.004C408.216 369.004 404.34 383.869 404.005 385.807C403.694 387.746 402.092 477.265 401.419 480.161C400.8 483.055 394.958 483.392 392.374 483.392C389.996 483.392 385.165 481.738 382.397 480.498C388.239 479.618 394.338 478.454 394.338 477.265C394.338 474.992 398.216 388.083 398.835 384.205C399.508 380.326 403.952 368.021 403.952 368.021V333.46L408.216 369.004Z" fill="#231547"/>
<path d="M721.142 501.13C721.142 501.13 701.36 485.982 702.288 479.178C703.213 472.377 716.505 480.725 716.505 480.725C716.505 480.725 706.583 465.267 711.698 460.01C716.814 454.756 725.776 472.068 725.776 472.068C725.776 472.068 727.013 459.701 733.812 463.411C740.614 467.121 745.867 493.711 745.867 493.711L752.101 492.707C752.101 492.707 756.957 464.254 763.757 463.017C770.558 461.779 766.886 474.233 766.886 474.233C766.886 474.233 782.65 456.17 788.521 459.018C794.395 461.866 775.539 486.907 775.539 486.907C775.539 486.907 782.959 480.416 785.74 485.053C788.521 489.691 772.448 501.13 772.448 501.13H721.142Z" fill="#99B746"/>
<path d="M756.375 383.947V501.13H736.596V383.947H756.375Z" fill="#75726D"/>
<path d="M756.375 383.946V405.117L736.596 403.733V383.946H756.375Z" fill="#54514C"/>
<path d="M680.96 326.922V387.831C680.96 390.498 683.074 392.686 685.741 392.773L805.667 396.772C808.459 396.866 810.775 394.625 810.775 391.829V323.21C810.775 320.417 808.469 318.178 805.678 318.265L685.752 321.98C683.081 322.062 680.96 324.25 680.96 326.922Z" fill="#F98D43"/>
<path d="M801.515 326.963H801.492L690.196 330.41C689.818 330.421 689.52 330.728 689.52 331.106V383.658C689.52 384.036 689.816 384.341 690.192 384.35L801.492 388.062L801.998 387.869L802.211 387.368V327.66L802.001 327.158L801.515 326.963ZM801.522 390.356L801.414 390.353L690.118 386.641C688.499 386.591 687.229 385.28 687.229 383.658V331.106C687.229 329.482 688.501 328.171 690.125 328.118L801.423 324.672C802.241 324.679 803.009 324.949 803.595 325.518C804.179 326.084 804.502 326.847 804.502 327.66V387.368C804.502 388.183 804.177 388.946 803.591 389.515C803.029 390.06 802.299 390.356 801.522 390.356Z" fill="white"/>
<path d="M714.597 355.569C713.777 354.745 712.879 354.089 711.907 353.603C710.941 353.118 709.958 352.712 708.98 352.394C707.999 352.075 707.099 351.761 706.292 351.461C705.484 351.161 704.822 350.767 704.315 350.288C703.809 349.809 703.553 349.14 703.553 348.28C703.553 347.708 703.681 347.167 703.933 346.66C704.187 346.154 704.606 345.732 705.181 345.4C705.756 345.07 706.521 344.894 707.47 344.878C708.533 344.859 709.635 345.072 710.767 345.526C711.896 345.978 713.044 346.709 714.196 347.714C715.03 344.509 715.447 342.9 716.278 339.672C715.101 338.567 713.742 337.761 712.205 337.243C710.666 336.725 709.101 336.491 707.507 336.539C705.124 336.615 703.136 337.233 701.541 338.386C699.947 339.539 698.755 341.03 697.972 342.859C697.186 344.685 696.792 346.695 696.792 348.89C696.792 350.877 697.04 352.522 697.537 353.835C698.034 355.146 698.684 356.216 699.495 357.036C700.302 357.856 701.209 358.521 702.201 359.027C703.193 359.531 704.171 359.946 705.131 360.258C706.086 360.569 706.977 360.902 707.8 361.252C708.62 361.605 709.289 362.027 709.795 362.519C710.301 363.012 710.556 363.683 710.556 364.515C710.556 365.166 710.423 365.73 710.159 366.195C709.894 366.658 709.474 367.015 708.909 367.258C708.345 367.501 707.573 367.613 706.604 367.593C705.195 367.565 703.779 367.185 702.357 366.461C700.934 365.737 699.681 364.836 698.595 363.754C697.692 366.878 697.241 368.434 696.341 371.534C697.473 372.73 698.959 373.745 700.797 374.57C702.634 375.395 704.558 375.846 706.57 375.913C708.973 375.993 710.975 375.5 712.569 374.421C714.164 373.342 715.36 371.868 716.157 370.001C716.954 368.14 717.355 366.083 717.355 363.844C717.355 361.83 717.099 360.15 716.59 358.81C716.081 357.471 715.415 356.39 714.597 355.569Z" fill="white"/>
<path d="M730.607 360.143C731.595 356.184 732.566 352.254 733.718 347.575C734.873 352.219 735.847 356.158 736.836 360.189C734.566 360.173 732.754 360.159 730.607 360.143ZM730.387 336.748C726.101 352.543 723.959 360.313 719.673 375.578C722.475 375.668 723.874 375.711 726.676 375.803C727.377 373.028 728 370.549 728.584 368.221C732.259 368.294 734.994 368.349 738.852 368.427C739.436 370.819 740.059 373.381 740.756 376.254C743.613 376.346 745.042 376.392 747.899 376.483C743.599 360.244 741.45 352.254 737.15 336.546C734.445 336.629 733.093 336.668 730.387 336.748Z" fill="white"/>
<path d="M758.435 336.019C755.691 336.102 754.316 336.143 751.569 336.223C751.569 352.373 751.569 360.452 751.569 376.6C758.935 376.838 762.618 376.955 769.984 377.194C769.984 373.47 769.984 371.607 769.984 367.884C765.365 367.799 763.056 367.758 758.435 367.673C758.435 355.01 758.435 348.679 758.435 336.019Z" fill="white"/>
<path d="M781.777 368.31C781.777 365.375 781.777 362.918 781.777 360.611C785.953 360.641 788.223 360.659 792.558 360.689C792.558 357.096 792.558 355.297 792.558 351.704C788.223 351.729 785.953 351.743 781.777 351.766C781.777 349.649 781.777 347.385 781.777 344.733C786.672 344.653 789.119 344.614 794.015 344.534C794.015 340.762 794.015 338.877 794.015 335.103C786.413 335.329 782.613 335.442 775.012 335.669C775.012 352.341 775.012 360.682 775.012 377.354C782.794 377.604 786.684 377.73 794.466 377.98C794.466 374.206 794.466 372.32 794.466 368.546C789.389 368.452 786.851 368.404 781.777 368.31Z" fill="white"/>
<path d="M702.256 503.288H798.828C798.828 503.288 743.971 465.315 702.256 503.288Z" fill="#E5E3E1"/>
<path d="M707.271 81.1418H819.416C830.539 50.7278 799.438 56.4953 789.552 64.3251C788.728 25.1807 756.392 36.5118 736.619 60.6175C726.115 51.9628 713.967 65.2004 707.271 81.1418Z" fill="#F2F1F0"/>
<path d="M399.341 106.538H545.566C561.957 84.1985 528.123 83.644 512.909 91.7602C519.246 67.3451 489.364 54.8019 464.141 77.5351C459.685 64.6 432.112 73.0622 429.656 91.7602C421.326 82.237 399.341 106.538 399.341 106.538Z" fill="#F2F1F0"/>
<path d="M579.649 25.1165H655.892C672.873 -1.27159 630.814 -10.6802 611.742 15.7101C611.742 5.52018 587.264 12.3143 579.649 25.1165Z" fill="#F2F1F0"/>
<path d="M559.215 458.713H604.146C597.354 441.906 573.32 439.724 559.215 458.713Z" fill="#E5E3E1"/>
<path d="M887.843 486.412H930.424C937.477 469.864 898.814 466.901 887.843 486.412Z" fill="#E5E3E1"/>
<path d="M819.4 460.196H839.404C833.769 450.267 823.057 449.745 819.4 460.196Z" fill="#E5E3E1"/>
</svg>
